<svg id="svg" version="1.1" xmlns="http://www.w3.org/2000/svg" xmlns:xlink="http://www.w3.org/1999/xlink" width="400" height="491.0112359550562" viewBox="0, 0, 400,491.0112359550562"><g id="svgg"><path id="path0" d="M181.615 16.500 C 180.066 19.836,178.020 30.587,176.611 42.800 C 176.243 45.990,175.760 50.130,175.538 52.000 C 175.316 53.870,174.889 58.730,174.589 62.800 C 173.388 79.097,173.208 81.658,172.797 88.200 C 172.562 91.940,172.299 95.540,172.212 96.200 C 172.126 96.860,171.948 100.730,171.816 104.800 C 171.685 108.870,171.408 114.810,171.200 118.000 C 170.993 121.190,170.634 129.920,170.404 137.400 C 169.792 157.269,169.516 158.795,168.360 148.695 C 167.038 137.142,164.703 120.275,162.588 107.000 C 162.238 104.800,161.688 101.200,161.367 99.000 C 161.045 96.800,160.691 94.707,160.580 94.349 C 160.469 93.992,160.100 92.102,159.760 90.149 C 158.560 83.248,158.045 80.559,157.208 76.800 C 156.742 74.710,156.163 72.010,155.921 70.800 C 155.679 69.590,155.348 68.420,155.187 68.200 C 155.025 67.980,154.761 67.170,154.601 66.400 C 153.323 60.266,150.145 53.769,148.822 54.586 C 145.517 56.629,143.432 88.570,144.748 117.000 C 144.993 122.280,145.285 130.740,145.397 135.800 C 145.509 140.860,145.782 148.150,146.002 152.000 C 146.222 155.850,146.586 162.240,146.811 166.200 C 147.656 181.118,148.800 198.762,149.208 203.200 C 149.661 208.112,150.505 218.649,151.178 227.800 C 151.405 230.880,151.688 234.096,151.808 234.946 C 151.927 235.797,152.284 239.667,152.602 243.546 C 153.389 253.171,154.402 264.140,154.511 264.223 C 154.560 264.260,166.310 264.413,180.623 264.563 L 206.645 264.834 207.142 260.517 C 207.416 258.143,207.907 253.860,208.234 251.000 C 209.134 243.116,209.925 236.218,210.412 232.000 C 210.653 229.910,211.097 225.500,211.397 222.200 C 211.698 218.900,212.138 214.310,212.376 212.000 C 213.281 203.204,214.007 195.615,214.423 190.600 C 214.660 187.740,215.111 182.430,215.425 178.800 C 216.461 166.820,217.865 146.730,218.597 133.400 C 221.442 81.648,220.463 53.666,215.871 55.428 C 213.540 56.323,208.764 72.144,204.832 92.000 C 204.156 95.410,203.409 99.100,203.171 100.200 C 202.934 101.300,202.580 103.190,202.387 104.400 C 202.193 105.610,201.665 108.580,201.215 111.000 C 200.764 113.420,200.217 116.660,200.000 118.200 C 199.783 119.740,199.341 122.530,199.018 124.400 C 198.267 128.759,197.391 134.290,196.613 139.600 C 194.458 154.303,194.288 155.234,193.840 154.767 C 193.753 154.675,193.481 143.170,193.237 129.200 C 192.992 115.230,192.613 100.200,192.394 95.800 C 192.175 91.400,191.818 83.390,191.601 78.000 C 191.214 68.393,190.777 61.388,189.968 51.800 C 189.745 49.160,189.397 45.020,189.195 42.600 C 187.391 21.018,184.361 10.585,181.615 16.500 M76.909 25.881 C 75.870 27.466,75.665 44.495,76.562 54.800 C 76.916 58.870,77.395 64.450,77.626 67.200 C 78.009 71.767,78.486 76.274,79.635 86.200 C 79.865 88.180,80.303 91.960,80.608 94.600 C 81.338 100.901,81.979 106.261,82.209 108.000 C 82.311 108.770,82.760 112.100,83.206 115.400 C 83.652 118.700,84.192 122.930,84.407 124.800 C 84.622 126.670,84.907 128.650,85.041 129.200 C 85.175 129.750,85.527 132.000,85.825 134.200 C 86.122 136.400,86.549 139.550,86.774 141.200 C 86.998 142.850,87.283 145.010,87.406 146.000 C 87.530 146.990,87.710 148.070,87.806 148.400 C 87.903 148.730,88.261 150.890,88.602 153.200 C 88.942 155.510,89.407 158.626,89.635 160.125 C 90.057 162.903,89.977 165.548,89.506 164.400 C 89.228 163.720,85.793 152.944,84.407 148.400 C 83.903 146.750,82.723 143.150,81.783 140.400 C 80.843 137.650,79.420 133.449,78.620 131.065 C 76.926 126.017,76.066 123.643,75.621 122.787 C 75.445 122.450,75.166 121.550,74.999 120.787 C 74.833 120.024,74.297 118.495,73.809 117.388 C 73.321 116.282,72.697 114.436,72.421 113.287 C 72.145 112.138,71.758 111.097,71.560 110.975 C 71.362 110.853,71.200 110.476,71.200 110.137 C 71.200 109.798,70.949 108.954,70.642 108.260 C 70.335 107.567,69.685 105.920,69.199 104.600 C 68.713 103.280,68.077 101.660,67.786 101.000 C 67.495 100.340,66.536 98.000,65.655 95.800 C 64.774 93.600,63.581 90.720,63.003 89.400 C 62.426 88.080,61.843 86.640,61.709 86.200 C 60.175 81.178,53.524 70.400,51.959 70.400 C 49.294 70.400,50.229 87.228,54.014 107.400 C 54.468 109.820,54.991 112.700,55.177 113.800 C 55.363 114.900,55.801 117.240,56.150 119.000 C 56.499 120.760,56.961 123.100,57.176 124.200 C 57.391 125.300,57.928 127.910,58.368 130.000 C 58.809 132.090,59.347 134.700,59.564 135.800 C 60.029 138.157,60.719 141.240,61.220 143.200 C 61.417 143.970,62.044 146.760,62.613 149.400 C 63.183 152.040,64.079 156.000,64.605 158.200 C 66.308 165.323,68.008 172.534,68.659 175.400 C 69.009 176.940,69.744 179.910,70.293 182.000 C 70.842 184.090,71.358 186.070,71.440 186.400 C 71.522 186.730,72.386 190.240,73.361 194.200 C 74.335 198.160,75.699 203.560,76.391 206.200 C 77.083 208.840,78.072 212.620,78.589 214.600 C 79.106 216.580,79.826 219.280,80.188 220.600 C 80.550 221.920,81.180 224.260,81.588 225.800 C 81.996 227.340,82.726 230.040,83.212 231.800 C 83.697 233.560,84.235 235.540,84.407 236.200 C 86.436 243.962,88.380 251.005,90.052 256.654 L 92.081 263.508 106.541 263.770 C 114.493 263.913,126.786 264.069,133.859 264.115 L 146.718 264.200 146.554 263.000 C 146.464 262.340,146.121 257.660,145.793 252.600 C 144.759 236.671,144.405 231.893,144.016 228.600 C 143.808 226.840,143.528 223.510,143.395 221.200 C 143.261 218.890,142.903 214.480,142.600 211.400 C 142.297 208.320,141.936 204.000,141.799 201.800 C 141.662 199.600,141.393 196.720,141.201 195.400 C 141.010 194.080,140.736 191.380,140.594 189.400 C 140.452 187.420,140.182 184.720,139.994 183.400 C 139.807 182.080,139.546 179.650,139.415 178.000 C 139.005 172.839,137.785 162.194,135.563 144.400 C 132.298 118.255,131.778 114.359,130.757 108.400 C 129.754 102.549,128.975 97.707,128.183 92.400 C 127.838 90.090,127.397 87.660,127.203 87.000 C 127.009 86.340,126.740 84.913,126.604 83.828 C 126.469 82.743,126.269 81.712,126.161 81.536 C 126.052 81.361,125.720 79.998,125.422 78.508 C 119.077 46.752,114.185 53.785,113.394 95.800 C 113.115 110.623,113.745 150.203,114.365 156.800 C 114.939 162.908,113.845 161.560,112.580 154.600 C 112.220 152.620,111.689 149.830,111.401 148.400 C 111.112 146.970,110.591 144.360,110.242 142.600 C 109.588 139.301,108.824 135.703,107.016 127.400 C 106.440 124.760,105.691 121.250,105.350 119.600 C 104.651 116.220,104.464 115.344,103.003 108.600 C 102.432 105.960,101.785 102.810,101.567 101.600 C 101.348 100.390,101.012 99.040,100.820 98.600 C 100.628 98.160,100.279 96.810,100.044 95.600 C 99.232 91.412,96.863 81.369,94.998 74.200 C 93.967 70.240,92.888 66.010,92.599 64.800 C 92.311 63.590,91.779 61.610,91.417 60.400 C 91.055 59.190,90.618 57.570,90.447 56.800 C 90.275 56.030,89.928 54.770,89.676 54.000 C 89.423 53.230,88.755 50.890,88.190 48.800 C 87.625 46.710,87.014 44.724,86.833 44.387 C 86.651 44.050,86.368 43.150,86.205 42.387 C 86.041 41.624,85.769 40.820,85.600 40.600 C 85.431 40.380,85.161 39.570,85.000 38.800 C 84.839 38.030,84.573 37.220,84.409 37.000 C 84.245 36.780,83.989 36.060,83.841 35.400 C 83.693 34.740,83.328 33.660,83.030 33.000 C 82.732 32.340,81.976 30.656,81.350 29.257 C 79.446 25.003,78.138 24.008,76.909 25.881 M286.715 28.500 C 284.635 31.259,282.666 36.228,278.196 50.000 C 276.732 54.510,275.384 58.560,275.201 59.000 C 275.018 59.440,274.662 60.610,274.411 61.600 C 274.159 62.590,273.599 64.660,273.167 66.200 C 272.048 70.183,271.301 72.888,270.650 75.302 C 270.340 76.456,269.688 78.840,269.202 80.600 C 268.716 82.360,268.175 84.430,268.001 85.200 C 267.827 85.970,266.201 92.360,264.387 99.400 C 262.573 106.440,260.928 113.100,260.731 114.200 C 260.534 115.300,260.214 116.560,260.021 117.000 C 259.829 117.440,259.476 118.790,259.238 120.000 C 258.810 122.174,258.493 123.565,256.818 130.600 C 255.669 135.428,254.925 138.687,253.988 143.000 C 253.557 144.980,252.662 149.030,251.999 152.000 C 251.335 154.970,250.606 158.390,250.378 159.600 C 249.374 164.930,248.698 163.427,249.192 156.961 C 252.739 110.552,252.283 63.789,248.252 60.443 C 246.163 58.710,241.658 70.153,238.977 84.000 C 238.700 85.430,238.029 88.670,237.487 91.200 C 236.944 93.730,236.191 97.510,235.813 99.600 C 234.888 104.719,234.113 108.830,233.438 112.200 C 233.129 113.740,232.668 116.350,232.413 118.000 C 231.928 121.141,231.142 126.124,230.175 132.200 C 229.612 135.733,229.263 138.161,227.582 150.200 C 226.326 159.202,225.719 163.678,225.010 169.185 C 224.657 171.926,224.296 174.716,224.208 175.385 C 224.038 176.669,223.610 180.195,222.629 188.400 C 221.982 193.817,221.244 199.886,221.001 201.800 C 220.917 202.460,220.651 204.890,220.409 207.200 C 219.304 217.755,218.755 222.838,218.399 225.800 C 218.188 227.560,217.926 229.990,217.817 231.200 C 217.709 232.410,217.351 236.100,217.023 239.400 C 215.681 252.890,215.201 257.970,214.955 261.256 L 214.697 264.712 220.449 264.944 C 223.612 265.072,235.861 265.277,247.668 265.399 L 269.136 265.621 270.592 260.910 C 271.393 258.320,272.660 254.220,273.408 251.800 C 274.155 249.380,276.498 241.550,278.613 234.400 C 280.728 227.250,282.912 219.870,283.467 218.000 C 284.022 216.130,284.725 213.654,285.030 212.498 C 286.007 208.793,286.648 206.457,290.382 193.000 C 292.396 185.740,294.647 177.460,295.384 174.600 C 296.121 171.740,297.119 167.960,297.602 166.200 C 298.085 164.440,298.629 162.280,298.810 161.400 C 298.992 160.520,299.535 158.360,300.016 156.600 C 301.040 152.861,300.951 153.216,302.013 148.600 C 303.100 143.875,303.688 141.380,305.359 134.400 C 306.123 131.210,307.196 126.530,307.745 124.000 C 308.293 121.470,309.290 116.880,309.959 113.800 C 311.313 107.568,311.784 105.074,312.601 99.810 C 312.907 97.836,313.272 95.769,313.410 95.218 C 314.452 91.067,315.458 77.893,314.921 75.437 C 313.838 70.483,310.856 73.868,303.970 87.872 C 301.786 92.312,300.000 96.158,300.000 96.418 C 300.000 96.678,299.652 97.546,299.228 98.346 C 298.499 99.718,296.939 103.530,293.721 111.800 C 292.950 113.780,291.689 117.020,290.918 119.000 C 290.147 120.980,289.243 123.320,288.910 124.200 C 288.577 125.080,288.145 126.160,287.951 126.600 C 287.582 127.436,285.352 133.674,283.947 137.800 C 283.497 139.120,282.791 141.100,282.377 142.200 C 281.963 143.300,280.973 146.090,280.177 148.400 C 276.972 157.697,275.519 161.839,275.195 162.600 C 275.009 163.040,274.650 164.072,274.399 164.894 C 273.987 166.242,273.189 167.332,273.207 166.524 C 273.219 165.979,274.309 159.208,274.998 155.400 C 275.844 150.724,277.546 140.809,277.986 138.000 C 278.275 136.150,278.922 132.129,280.175 124.400 C 280.299 123.630,280.681 121.380,281.024 119.400 C 281.606 116.029,282.036 113.215,283.164 105.400 C 283.418 103.640,283.888 100.400,284.208 98.200 C 284.529 96.000,285.065 92.310,285.401 90.000 C 285.736 87.690,286.190 84.180,286.410 82.200 C 286.630 80.220,287.075 76.440,287.399 73.800 C 290.837 45.781,291.239 27.200,288.408 27.200 C 288.016 27.200,287.254 27.785,286.715 28.500 M96.184 278.036 C 96.510 279.006,97.420 282.050,98.206 284.800 C 99.791 290.349,102.053 297.775,103.231 301.302 C 103.654 302.567,104.000 303.856,104.000 304.166 C 104.000 304.985,107.676 305.153,129.735 305.343 L 148.870 305.507 148.607 299.854 C 148.462 296.744,148.280 293.120,148.201 291.800 C 148.122 290.480,147.929 286.565,147.771 283.100 L 147.485 276.800 129.642 276.799 C 119.829 276.798,108.153 276.680,103.696 276.535 L 95.591 276.273 96.184 278.036 M155.800 278.001 C 155.940 278.442,156.309 281.277,156.619 284.301 C 156.929 287.326,157.358 291.330,157.571 293.200 C 157.785 295.070,158.175 298.597,158.438 301.037 L 158.915 305.474 169.723 305.737 C 175.667 305.882,185.173 306.000,190.847 306.000 L 201.164 306.000 201.364 304.700 C 201.475 303.985,201.844 301.240,202.184 298.600 C 203.139 291.189,204.039 284.521,204.564 280.963 L 205.041 277.727 191.021 277.464 C 163.587 276.950,155.506 277.073,155.800 278.001 M213.253 282.597 C 212.997 285.238,212.610 290.190,212.393 293.600 C 212.177 297.010,211.885 301.174,211.746 302.854 L 211.493 305.908 220.046 306.157 C 235.449 306.604,256.394 306.629,256.332 306.200 C 256.300 305.980,256.381 305.530,256.511 305.200 C 256.642 304.870,258.136 300.280,259.831 295.000 C 261.526 289.720,263.409 283.870,264.016 282.000 L 265.119 278.600 261.859 278.331 C 260.067 278.183,248.502 278.002,236.159 277.928 L 213.718 277.793 213.253 282.597 M108.959 319.637 C 112.352 330.454,113.754 334.823,114.211 336.000 C 114.509 336.770,114.865 337.850,115.002 338.400 C 115.139 338.950,115.401 339.760,115.585 340.200 C 116.029 341.261,119.973 352.989,120.529 354.900 L 120.965 356.400 126.018 356.400 C 128.797 356.400,135.375 356.518,140.635 356.662 L 150.200 356.923 149.888 337.783 C 149.716 327.256,149.508 318.574,149.424 318.491 C 149.341 318.408,140.078 318.235,128.839 318.107 L 108.406 317.874 108.959 319.637 M160.621 319.264 C 160.689 319.779,160.931 321.460,161.160 323.000 C 161.388 324.540,161.861 327.870,162.211 330.400 C 163.271 338.072,164.033 343.236,164.599 346.600 C 164.895 348.360,165.357 351.349,165.625 353.242 L 166.112 356.684 170.556 356.940 C 173.000 357.081,179.095 357.197,184.100 357.198 L 193.200 357.200 193.210 355.900 C 193.215 355.185,193.408 353.790,193.638 352.800 C 193.869 351.810,194.413 348.930,194.847 346.400 C 195.574 342.167,195.915 340.106,197.395 331.000 C 198.376 324.971,199.215 319.082,199.108 318.991 C 199.048 318.941,190.337 318.772,179.749 318.615 L 160.497 318.328 160.621 319.264 M210.658 320.628 C 210.470 321.998,209.845 335.627,209.096 354.652 L 209.000 357.105 211.600 357.350 C 213.030 357.484,219.610 357.596,226.222 357.597 L 238.244 357.600 239.075 355.300 C 239.532 354.035,240.383 351.650,240.967 350.000 C 241.550 348.350,242.193 346.640,242.397 346.200 C 242.600 345.760,243.228 343.960,243.793 342.200 C 244.358 340.440,244.989 338.640,245.195 338.200 C 245.524 337.498,247.916 330.615,250.339 323.400 C 250.782 322.080,251.262 320.696,251.406 320.324 C 251.802 319.299,250.863 319.245,229.946 319.080 L 210.891 318.929 210.658 320.628 M117.500 383.812 C 117.038 384.307,117.144 413.260,117.620 416.523 C 119.531 429.629,126.280 443.550,134.654 451.659 C 139.136 455.999,144.311 460.400,144.932 460.400 C 145.058 460.400,145.934 460.921,146.880 461.557 C 148.371 462.560,152.144 464.452,156.200 466.229 C 180.748 476.988,214.999 467.144,229.832 445.066 C 232.483 441.120,232.718 440.722,234.847 436.600 C 240.692 425.277,241.947 418.337,241.981 397.147 L 242.000 384.893 227.100 384.655 C 181.313 383.923,117.853 383.435,117.500 383.812 " stroke="none" fill="#9c9c9c" fill-rule="evenodd"></path><path id="path1" d="M334.134 198.229 C 332.000 199.017,331.899 199.348,332.463 203.741 C 332.757 206.038,332.945 214.322,332.966 226.000 L 333.000 244.600 331.800 246.788 C 329.286 251.370,323.825 252.758,319.006 250.038 C 312.862 246.571,308.059 251.721,312.673 256.828 C 315.742 260.225,325.269 262.137,331.318 260.569 C 338.483 258.713,342.003 254.841,343.497 247.171 C 344.802 240.467,344.323 206.058,342.847 200.540 C 342.191 198.084,337.732 196.902,334.134 198.229 M83.036 263.905 C 78.489 264.533,77.076 272.462,81.046 275.069 C 82.770 276.200,97.464 276.504,193.400 277.393 C 207.260 277.521,219.140 277.707,219.800 277.806 C 223.907 278.421,273.857 278.065,275.200 277.412 C 280.370 274.895,279.935 267.999,274.496 266.253 C 272.564 265.633,266.682 265.505,216.800 265.001 C 208.550 264.917,185.240 264.659,165.000 264.427 C 120.336 263.915,84.611 263.687,83.036 263.905 M322.825 298.467 C 294.126 302.567,292.596 355.006,321.000 360.996 C 342.186 365.463,358.109 352.408,358.071 330.600 C 358.034 308.575,343.678 295.487,322.825 298.467 M97.800 305.217 C 89.383 305.502,88.400 306.122,88.400 311.145 C 88.400 318.099,85.601 317.752,145.144 318.178 C 162.823 318.304,177.403 318.473,177.544 318.553 C 178.362 319.019,260.384 319.373,262.400 318.920 C 266.400 318.020,268.451 312.825,266.024 309.740 C 263.530 306.569,263.124 306.539,219.200 306.238 C 193.299 306.061,145.564 305.556,112.000 305.105 C 107.710 305.047,101.320 305.098,97.800 305.217 M335.980 308.223 C 345.756 312.610,349.679 330.933,343.617 343.889 C 338.882 354.009,326.629 356.244,318.338 348.500 C 310.705 341.372,310.445 320.194,317.889 311.955 C 322.166 307.220,330.099 305.584,335.980 308.223 M119.163 356.657 L 117.726 356.841 117.486 369.910 C 117.354 377.099,117.340 383.074,117.455 383.188 C 117.569 383.302,128.584 383.513,141.931 383.656 C 155.279 383.798,176.550 384.025,189.200 384.159 C 201.850 384.293,218.876 384.513,227.035 384.647 L 241.870 384.891 242.135 377.581 C 242.281 373.561,242.400 367.528,242.400 364.174 L 242.400 358.077 238.300 357.841 C 234.684 357.633,194.561 357.214,160.200 357.026 C 153.600 356.990,141.990 356.851,134.400 356.717 C 126.810 356.583,119.953 356.556,119.163 356.657 M304.479 400.669 C 300.716 402.524,301.382 407.619,306.588 416.814 C 310.670 424.023,315.893 430.332,320.755 433.928 L 323.713 436.115 323.511 448.040 C 323.263 462.657,323.274 462.686,329.120 462.770 C 334.221 462.843,334.377 462.406,334.578 447.530 L 334.740 435.555 337.270 433.626 C 351.132 423.054,360.191 404.215,353.160 400.580 C 349.391 398.630,345.149 401.015,344.225 405.602 C 342.264 415.343,333.692 427.200,328.611 427.200 C 325.643 427.200,318.437 416.462,313.580 404.800 C 311.784 400.489,308.172 398.849,304.479 400.669 " stroke="none" fill="#3fd3ac" fill-rule="evenodd"></path><path id="path2" d="M0.400 245.600 L 0.400 490.400 200.200 490.400 L 400.000 490.400 400.000 245.600 L 400.000 0.800 200.200 0.800 L 0.400 0.800 0.400 245.600 M185.115 15.885 C 187.846 23.056,189.337 34.976,191.584 67.600 C 192.384 79.215,193.997 129.422,194.031 143.800 C 194.050 151.571,194.406 153.012,194.970 147.600 C 195.119 146.170,195.406 144.190,195.607 143.200 C 195.808 142.210,196.350 138.700,196.811 135.400 C 197.273 132.100,197.831 128.500,198.051 127.400 C 198.444 125.442,199.150 121.206,200.217 114.400 C 201.013 109.328,201.867 104.362,202.359 101.947 C 202.599 100.766,203.530 96.110,204.429 91.600 C 206.282 82.296,209.037 70.915,210.567 66.249 C 211.135 64.516,211.600 62.891,211.600 62.638 C 211.600 61.955,214.362 56.310,215.093 55.500 C 219.948 50.115,222.070 76.123,220.012 115.800 C 219.807 119.760,219.450 126.690,219.220 131.200 C 218.566 143.979,215.945 179.759,215.381 183.600 C 215.267 184.370,215.004 187.340,214.796 190.200 C 214.249 197.708,213.325 208.209,212.836 212.496 C 212.603 214.533,212.132 218.990,211.790 222.400 C 210.672 233.544,209.592 243.710,209.007 248.600 C 208.692 251.240,208.329 254.480,208.202 255.800 C 208.074 257.120,207.779 259.420,207.547 260.912 C 206.938 264.815,206.972 264.854,210.894 264.716 L 214.200 264.600 214.483 261.800 C 214.890 257.761,215.544 250.311,215.818 246.600 C 215.947 244.840,216.125 243.130,216.212 242.800 C 216.299 242.470,216.561 239.860,216.795 237.000 C 217.028 234.140,217.394 230.450,217.607 228.800 C 218.006 225.725,218.746 218.806,219.811 208.200 C 220.142 204.900,220.779 199.320,221.227 195.800 C 221.675 192.280,222.210 187.870,222.417 186.000 C 222.891 181.713,223.849 174.248,224.624 168.800 C 225.311 163.977,225.749 160.615,226.596 153.664 C 226.927 150.949,227.275 148.603,227.369 148.450 C 227.464 148.297,227.746 146.288,227.996 143.986 C 228.246 141.684,228.609 139.080,228.803 138.200 C 228.997 137.320,229.532 133.990,229.992 130.800 C 230.452 127.610,231.102 123.290,231.436 121.200 C 232.503 114.527,237.001 90.264,237.587 88.019 C 237.790 87.239,238.253 85.250,238.614 83.600 C 239.452 79.774,240.289 76.476,241.244 73.233 C 241.660 71.821,242.000 70.450,242.000 70.186 C 242.000 69.601,243.299 66.263,244.827 62.925 C 251.794 47.696,254.163 83.028,250.410 146.200 C 250.005 153.020,249.724 158.652,249.786 158.716 C 249.906 158.839,251.023 154.262,252.403 148.000 C 252.863 145.910,253.494 143.120,253.804 141.800 C 254.114 140.480,254.748 137.690,255.213 135.600 C 255.677 133.510,256.221 131.170,256.421 130.400 C 256.621 129.630,257.223 127.110,257.759 124.800 C 260.630 112.433,261.423 109.119,263.260 101.800 C 264.365 97.400,265.540 92.810,265.872 91.600 C 266.204 90.390,266.713 88.410,267.004 87.200 C 267.294 85.990,268.191 82.660,268.996 79.800 C 269.801 76.940,270.637 73.790,270.853 72.800 C 271.070 71.810,271.401 70.640,271.590 70.200 C 271.779 69.760,272.137 68.500,272.387 67.400 C 273.478 62.590,280.672 40.329,282.728 35.400 C 287.881 23.045,290.800 23.751,290.800 37.353 C 290.800 45.095,289.405 62.398,287.829 74.200 C 287.107 79.605,286.107 87.448,285.763 90.400 C 285.622 91.610,285.431 92.960,285.339 93.400 C 285.247 93.840,284.910 96.270,284.590 98.800 C 284.270 101.330,283.903 103.889,283.775 104.486 C 283.647 105.083,283.299 107.333,283.000 109.486 C 282.233 115.019,281.068 122.434,279.402 132.400 C 278.611 137.130,277.794 142.080,277.588 143.400 C 277.381 144.720,276.747 148.230,276.180 151.200 C 273.365 165.938,273.543 166.133,278.004 153.200 C 279.560 148.690,281.179 144.100,281.602 143.000 C 282.025 141.900,283.289 138.390,284.411 135.200 C 285.532 132.010,286.600 129.040,286.785 128.600 C 286.969 128.160,287.336 127.170,287.600 126.400 C 287.864 125.630,288.230 124.640,288.412 124.200 C 288.594 123.760,289.184 122.230,289.724 120.800 C 291.748 115.442,293.360 111.315,294.488 108.600 C 295.128 107.060,296.110 104.630,296.670 103.200 C 297.229 101.770,298.099 99.700,298.604 98.600 C 299.108 97.500,300.362 94.620,301.392 92.200 C 308.243 76.093,315.036 68.118,315.252 75.929 C 315.449 83.071,314.524 92.793,312.809 101.600 C 312.531 103.030,311.959 106.000,311.540 108.200 C 311.120 110.400,310.518 113.370,310.203 114.800 C 309.888 116.230,308.975 120.460,308.176 124.200 C 307.377 127.940,305.758 134.960,304.579 139.800 C 303.399 144.640,302.140 149.860,301.781 151.400 C 301.187 153.941,300.278 157.486,299.113 161.800 C 298.876 162.680,298.547 164.030,298.382 164.800 C 297.767 167.682,293.875 182.449,291.958 189.175 C 290.865 193.011,289.815 196.791,289.626 197.575 C 289.437 198.359,288.814 200.620,288.242 202.600 C 287.669 204.580,286.832 207.550,286.381 209.200 C 284.630 215.605,284.387 216.451,282.582 222.400 C 282.282 223.390,280.832 228.340,279.360 233.400 C 276.108 244.576,275.594 246.296,273.976 251.400 C 269.260 266.275,269.346 265.600,272.171 265.600 C 276.044 265.600,278.975 267.844,279.225 271.000 C 279.641 276.238,275.895 279.105,269.145 278.714 C 265.371 278.496,265.725 278.132,263.816 284.200 C 262.986 286.840,261.068 292.740,259.553 297.310 C 256.250 307.282,256.289 306.400,259.151 306.400 C 267.305 306.400,270.682 314.386,264.283 318.535 C 262.716 319.551,262.398 319.600,257.391 319.600 L 252.143 319.600 250.686 323.900 C 249.885 326.265,248.522 330.180,247.658 332.600 C 246.794 335.020,245.873 337.630,245.611 338.400 C 245.348 339.170,244.988 340.160,244.809 340.600 C 244.631 341.040,244.179 342.300,243.805 343.400 C 242.815 346.310,241.591 349.623,240.996 351.000 C 240.334 352.534,239.181 356.019,239.079 356.800 C 239.020 357.248,239.493 357.431,240.943 357.524 L 242.887 357.647 242.616 383.724 C 242.242 419.672,241.587 424.565,235.565 436.400 C 211.926 482.857,146.479 482.612,123.170 435.978 C 120.161 429.959,118.359 424.161,117.211 416.800 C 116.813 414.253,116.752 364.669,117.140 359.600 L 117.400 356.200 118.933 356.074 C 120.182 355.971,120.417 355.823,120.205 355.274 C 120.061 354.903,118.584 350.460,116.922 345.400 C 115.260 340.340,113.755 335.840,113.578 335.400 C 113.401 334.960,112.049 330.865,110.572 326.300 L 107.887 318.000 100.098 318.000 C 89.602 318.000,87.750 316.945,87.835 311.013 C 87.907 305.925,89.708 304.800,97.779 304.800 L 103.664 304.800 103.378 303.500 C 103.221 302.785,102.572 300.580,101.935 298.600 C 101.299 296.620,100.595 294.280,100.372 293.400 C 100.149 292.520,99.805 291.440,99.607 291.000 C 99.267 290.242,96.373 280.179,95.856 277.959 C 95.575 276.750,93.464 276.408,86.247 276.403 C 80.399 276.399,78.229 274.667,78.218 269.997 C 78.207 265.146,80.312 263.459,86.627 263.259 C 89.417 263.170,91.200 262.952,91.200 262.700 C 91.200 262.284,88.082 250.968,87.039 247.600 C 86.733 246.610,86.089 244.180,85.608 242.200 C 85.128 240.220,84.570 238.287,84.367 237.905 C 84.165 237.523,84.000 236.964,84.000 236.663 C 84.000 236.164,83.039 232.553,80.736 224.400 C 80.270 222.750,79.540 220.140,79.114 218.600 C 78.203 215.308,74.502 200.915,73.972 198.600 C 73.770 197.720,73.427 196.370,73.209 195.600 C 72.836 194.283,69.326 179.892,67.550 172.400 C 67.107 170.530,66.413 167.740,66.008 166.200 C 65.603 164.660,64.880 161.600,64.402 159.400 C 63.924 157.200,63.380 155.040,63.192 154.600 C 63.004 154.160,62.669 152.810,62.446 151.600 C 61.922 148.753,61.360 146.064,60.106 140.400 C 58.962 135.230,58.344 132.159,56.244 121.200 C 55.886 119.330,55.400 116.954,55.164 115.920 C 54.929 114.887,54.583 113.087,54.395 111.920 C 54.207 110.754,53.773 108.360,53.431 106.600 C 53.088 104.840,52.444 101.060,51.998 98.200 C 51.552 95.340,50.995 91.830,50.760 90.400 C 49.242 81.162,49.926 70.000,52.010 70.000 C 52.853 70.000,55.600 72.639,55.600 73.450 C 55.600 73.716,55.759 73.993,55.953 74.067 C 56.363 74.222,60.998 83.389,62.595 87.201 C 63.193 88.630,64.015 90.535,64.421 91.432 C 64.826 92.330,65.533 94.040,65.990 95.232 C 66.448 96.425,66.984 97.760,67.182 98.200 C 67.583 99.091,69.119 103.135,70.219 106.200 C 70.615 107.300,71.066 108.380,71.223 108.600 C 71.379 108.820,71.639 109.630,71.800 110.400 C 71.961 111.170,72.227 111.980,72.391 112.200 C 72.555 112.420,72.835 113.140,73.012 113.800 C 73.439 115.387,73.395 115.259,73.896 116.400 C 74.137 116.950,74.993 119.290,75.797 121.600 C 76.602 123.910,77.666 126.880,78.163 128.200 C 78.659 129.520,80.015 133.570,81.175 137.200 C 82.336 140.830,83.536 144.367,83.842 145.060 C 84.149 145.754,84.400 146.498,84.400 146.715 C 84.400 147.158,85.057 149.312,87.230 156.000 C 88.052 158.530,88.811 160.960,88.916 161.400 C 89.394 163.399,89.138 158.853,88.628 156.283 C 88.313 154.697,87.932 152.230,87.781 150.800 C 87.630 149.370,87.462 147.930,87.407 147.600 C 86.459 141.924,85.822 137.650,84.814 130.200 C 84.605 128.660,83.789 122.720,82.999 117.000 C 82.210 111.280,81.391 105.070,81.179 103.200 C 80.967 101.330,80.442 97.100,80.011 93.800 C 78.971 85.820,78.092 78.124,77.772 74.200 C 77.629 72.440,77.447 70.460,77.367 69.800 C 77.287 69.140,77.034 66.260,76.805 63.400 C 76.575 60.540,76.195 55.950,75.961 53.200 C 74.551 36.664,75.394 24.400,77.941 24.400 C 79.190 24.400,83.191 30.415,83.198 32.305 C 83.199 32.583,83.374 33.123,83.587 33.505 C 84.030 34.301,87.915 46.319,89.177 50.800 C 89.642 52.450,90.269 54.610,90.569 55.600 C 91.898 59.977,92.793 63.264,93.618 66.800 C 94.106 68.890,94.752 71.371,95.053 72.314 C 95.354 73.257,95.600 74.321,95.600 74.679 C 95.600 75.037,95.858 76.246,96.174 77.365 C 97.279 81.284,98.028 84.215,98.383 86.000 C 98.757 87.883,99.935 93.169,100.969 97.600 C 102.635 104.738,103.290 107.622,103.787 110.000 C 104.086 111.430,104.786 114.670,105.344 117.200 C 107.435 126.689,109.220 135.072,109.603 137.200 C 109.820 138.410,110.896 143.720,111.993 149.000 L 113.989 158.600 113.803 153.800 C 112.169 111.627,112.657 76.208,115.034 64.400 C 117.954 49.896,123.740 62.704,129.038 95.400 C 129.359 97.380,129.876 100.530,130.187 102.400 C 131.915 112.773,135.487 138.061,136.403 146.400 C 136.657 148.710,137.113 152.670,137.417 155.200 C 138.322 162.733,139.397 172.972,141.427 193.400 C 141.734 196.480,142.254 202.600,142.583 207.000 C 142.912 211.400,143.357 216.440,143.571 218.200 C 143.785 219.960,144.069 223.560,144.204 226.200 C 144.338 228.840,144.606 231.917,144.799 233.037 C 144.992 234.158,145.261 237.578,145.397 240.637 C 145.534 243.697,145.810 247.370,146.010 248.800 C 146.211 250.230,146.492 254.100,146.633 257.400 C 146.945 264.658,146.544 264.000,150.659 264.000 L 154.070 264.000 153.855 262.500 C 153.736 261.675,153.535 259.560,153.408 257.800 C 153.281 256.040,153.005 253.070,152.794 251.200 C 152.582 249.330,152.131 244.650,151.791 240.800 C 151.451 236.950,151.003 232.000,150.795 229.800 C 150.588 227.600,150.235 223.100,150.011 219.800 C 149.787 216.500,149.425 212.000,149.206 209.800 C 148.743 205.149,147.768 191.337,147.172 181.000 C 146.944 177.040,146.687 173.170,146.603 172.400 C 146.518 171.630,146.248 165.690,146.004 159.200 C 145.759 152.710,145.379 145.240,145.159 142.600 C 144.554 135.325,144.217 79.318,144.739 72.800 C 145.870 58.698,146.878 54.600,149.217 54.600 C 152.096 54.600,154.952 63.108,158.952 83.600 C 161.215 95.196,161.677 97.692,162.022 100.200 C 162.203 101.520,162.633 104.264,162.977 106.297 C 164.462 115.075,166.952 132.824,167.622 139.400 C 167.846 141.600,168.194 144.210,168.394 145.200 C 168.595 146.190,168.901 148.350,169.074 150.000 L 169.388 153.000 169.647 147.600 C 169.789 144.630,169.927 139.174,169.953 135.477 C 169.979 131.779,170.184 127.099,170.409 125.077 C 170.634 123.054,170.991 116.720,171.204 111.000 C 171.416 105.280,171.769 97.720,171.989 94.200 C 172.209 90.680,172.575 84.740,172.804 81.000 C 173.298 72.916,174.884 53.272,175.372 49.200 C 175.464 48.430,175.745 45.910,175.998 43.600 C 177.800 27.084,180.644 14.779,182.772 14.285 C 183.756 14.057,184.652 14.669,185.115 15.885 M341.839 198.189 C 345.879 200.836,345.979 245.347,341.964 253.387 C 337.771 261.782,321.651 264.520,313.413 258.237 C 307.123 253.439,312.261 245.120,318.830 249.467 C 324.213 253.029,331.099 250.053,332.365 243.617 C 332.892 240.939,332.667 218.199,331.992 205.807 C 331.600 198.618,331.661 198.405,334.333 197.649 C 336.262 197.103,340.665 197.420,341.839 198.189 M148.155 277.772 C 148.010 278.151,148.091 281.732,148.335 285.731 C 148.579 289.729,148.883 295.250,149.010 298.000 C 149.137 300.750,149.337 303.495,149.453 304.100 L 149.664 305.200 154.072 305.200 L 158.481 305.200 158.288 303.500 C 158.182 302.565,157.803 298.920,157.446 295.400 C 157.090 291.880,156.622 287.830,156.407 286.400 C 156.192 284.970,155.906 282.450,155.771 280.800 C 155.475 277.189,156.014 277.667,151.885 277.350 C 148.826 277.115,148.389 277.164,148.155 277.772 M205.051 280.835 C 204.907 282.394,204.536 285.229,204.229 287.135 C 203.921 289.041,203.370 292.940,203.005 295.800 C 202.640 298.660,202.193 301.990,202.012 303.200 C 201.831 304.410,201.765 305.535,201.865 305.700 C 202.196 306.244,210.807 306.056,210.989 305.500 C 211.079 305.225,211.340 302.210,211.570 298.800 C 211.800 295.390,212.168 290.260,212.389 287.400 C 212.609 284.540,212.852 281.255,212.928 280.100 L 213.066 278.000 209.190 278.000 L 205.315 278.000 205.051 280.835 M332.523 298.027 C 338.893 298.972,345.391 301.529,348.453 304.295 C 351.539 307.083,356.351 314.437,356.418 316.468 C 356.427 316.760,356.702 317.720,357.027 318.600 C 359.298 324.736,358.892 337.091,356.198 343.800 C 351.044 356.637,342.825 362.127,328.800 362.098 C 310.386 362.060,300.221 350.344,300.255 329.200 C 300.289 307.969,313.503 295.204,332.523 298.027 M325.200 307.972 C 317.841 310.689,314.751 315.027,313.215 324.800 C 311.317 336.873,315.029 347.094,322.688 350.890 C 335.012 356.996,346.042 347.347,346.066 330.436 C 346.089 314.627,336.151 303.928,325.200 307.972 M150.150 327.463 C 150.285 332.488,150.509 341.055,150.647 346.500 L 150.898 356.400 158.267 356.400 L 165.636 356.400 165.423 355.100 C 165.306 354.385,165.010 352.630,164.765 351.200 C 163.678 344.841,162.280 335.032,161.425 327.749 C 160.861 322.954,160.481 320.366,160.170 319.200 C 160.040 318.715,159.032 318.573,154.957 318.463 L 149.904 318.327 150.150 327.463 M199.072 323.500 C 198.279 328.444,197.858 330.977,195.377 345.752 C 194.384 351.666,193.653 356.586,193.752 356.686 C 193.852 356.785,197.173 356.963,201.132 357.080 L 208.331 357.293 208.549 355.147 C 208.668 353.966,208.874 349.580,209.006 345.400 C 209.138 341.220,209.461 333.615,209.723 328.500 L 210.200 319.200 204.981 319.200 L 199.762 319.200 199.072 323.500 M310.439 400.220 C 311.655 400.849,313.600 403.020,313.600 403.749 C 313.600 404.753,319.910 416.750,322.480 420.633 C 326.812 427.179,328.445 427.903,332.369 425.023 C 336.636 421.890,342.441 412.526,343.417 407.200 C 344.631 400.569,348.385 397.766,353.037 400.018 C 360.833 403.792,352.406 422.521,337.899 433.657 L 334.797 436.038 335.049 438.178 C 335.561 442.536,334.779 460.738,334.040 461.650 C 332.494 463.559,325.845 463.506,323.908 461.569 L 322.801 460.463 323.031 448.532 C 323.157 441.969,323.112 436.408,322.930 436.174 C 322.749 435.939,321.742 435.164,320.694 434.450 C 312.373 428.788,301.600 411.936,301.600 404.581 C 301.600 400.524,306.424 398.144,310.439 400.220 " stroke="none" fill="#fbfbfb" fill-rule="evenodd"></path><path id="path3" d="M334.400 197.656 C 332.761 198.106,331.585 199.335,331.636 200.544 C 331.662 201.168,331.772 201.056,332.039 200.131 C 332.429 198.784,334.434 197.829,337.600 197.482 C 338.967 197.332,338.962 197.327,337.400 197.300 C 336.520 197.285,335.170 197.445,334.400 197.656 M340.233 198.030 C 343.607 199.010,344.725 208.485,344.264 232.200 C 343.894 251.246,342.473 255.548,335.376 259.121 C 325.205 264.242,308.703 258.967,311.202 251.394 C 312.126 248.593,315.429 248.019,319.006 250.038 C 323.825 252.758,329.286 251.370,331.800 246.788 L 333.000 244.600 332.934 225.600 C 332.898 215.150,332.689 205.430,332.470 204.000 C 332.155 201.935,332.115 202.800,332.277 208.200 C 332.738 223.637,332.620 243.744,332.058 245.334 C 330.240 250.476,324.337 252.414,319.064 249.600 C 314.830 247.341,311.284 248.413,310.580 252.165 C 309.127 259.912,326.386 264.768,336.000 259.316 C 343.252 255.204,344.791 249.687,344.792 227.800 C 344.794 204.833,343.661 197.522,340.118 197.636 L 339.000 197.672 340.233 198.030 M82.600 263.493 C 77.614 264.741,76.667 273.413,81.267 275.702 C 82.726 276.427,95.786 277.025,95.367 276.347 C 95.249 276.156,92.328 275.999,88.876 275.999 C 80.481 275.997,78.800 274.958,78.800 269.773 C 78.800 265.068,80.558 263.790,86.884 263.897 C 89.568 263.942,91.670 263.810,91.808 263.588 C 92.054 263.189,84.141 263.107,82.600 263.493 M148.713 264.295 C 149.876 264.376,151.676 264.376,152.713 264.293 C 153.751 264.211,152.800 264.145,150.600 264.146 C 148.400 264.147,147.551 264.214,148.713 264.295 M206.799 264.900 C 206.800 265.065,208.645 265.171,210.900 265.136 C 215.165 265.069,214.681 264.898,209.699 264.709 C 208.104 264.649,206.799 264.735,206.799 264.900 M274.600 266.225 C 278.576 267.639,280.119 272.157,277.700 275.301 C 275.979 277.538,274.615 277.993,269.486 278.046 C 266.010 278.082,265.360 278.166,266.600 278.423 C 273.808 279.914,279.205 277.042,279.197 271.720 C 279.193 268.776,276.332 265.548,273.800 265.630 C 273.332 265.646,273.664 265.893,274.600 266.225 M149.500 277.095 C 150.655 277.176,152.545 277.176,153.700 277.095 C 154.855 277.014,153.910 276.948,151.600 276.948 C 149.290 276.948,148.345 277.014,149.500 277.095 M205.356 277.671 C 205.244 277.852,207.098 277.979,209.476 277.954 C 214.397 277.901,214.239 277.717,209.080 277.494 C 207.144 277.410,205.468 277.490,205.356 277.671 M323.600 297.870 C 313.421 298.902,303.183 308.576,301.448 318.800 C 301.307 319.628,301.589 319.137,302.136 317.600 C 307.220 303.320,317.052 296.826,331.178 298.416 C 343.910 299.848,351.805 305.508,355.859 316.106 C 356.476 317.720,356.723 318.106,356.557 317.200 C 355.942 313.843,351.626 307.061,348.178 304.034 C 343.381 299.823,332.141 297.004,323.600 297.870 M90.976 305.430 C 90.549 305.776,90.470 305.911,90.800 305.730 C 91.130 305.548,94.280 305.299,97.800 305.176 L 104.200 304.953 97.976 304.876 C 92.829 304.813,91.619 304.909,90.976 305.430 M151.317 305.497 C 152.811 305.574,155.151 305.574,156.517 305.496 C 157.882 305.418,156.660 305.355,153.800 305.355 C 150.940 305.356,149.822 305.420,151.317 305.497 M88.851 307.212 C 87.512 309.415,87.364 312.099,88.461 314.287 C 90.183 317.719,90.430 317.795,100.128 317.837 L 108.600 317.873 100.200 317.636 C 90.999 317.377,90.231 317.180,88.980 314.760 C 88.061 312.984,88.215 308.743,89.246 307.433 C 89.711 306.842,89.990 306.257,89.867 306.134 C 89.744 306.011,89.287 306.496,88.851 307.212 M204.316 306.297 C 205.699 306.375,207.859 306.374,209.116 306.295 C 210.372 306.216,209.240 306.152,206.600 306.153 C 203.960 306.153,202.932 306.218,204.316 306.297 M256.600 306.600 C 257.561 306.928,262.840 307.071,262.342 306.756 C 262.044 306.567,260.540 306.424,259.000 306.438 C 257.460 306.452,256.380 306.525,256.600 306.600 M328.300 307.089 C 329.015 307.178,330.185 307.178,330.900 307.089 C 331.615 307.001,331.030 306.928,329.600 306.928 C 328.170 306.928,327.585 307.001,328.300 307.089 M263.774 307.724 C 271.045 312.198,267.393 318.823,257.432 319.230 L 251.800 319.460 256.874 319.530 C 263.311 319.619,265.305 318.832,267.036 315.520 C 268.502 312.713,266.086 307.092,263.469 307.224 C 263.211 307.236,263.348 307.461,263.774 307.724 M324.600 307.734 C 318.721 310.050,314.723 314.606,313.836 320.000 C 313.695 320.855,313.976 320.373,314.556 318.762 C 316.724 312.740,320.034 309.391,325.191 308.002 C 326.076 307.764,326.800 307.486,326.800 307.385 C 326.800 307.083,325.881 307.229,324.600 307.734 M333.600 307.800 C 335.433 308.506,336.548 308.494,335.000 307.786 C 334.340 307.483,333.440 307.242,333.000 307.248 C 332.481 307.257,332.692 307.450,333.600 307.800 M336.600 308.676 C 336.820 308.879,337.659 309.526,338.464 310.115 C 339.269 310.704,340.664 312.313,341.564 313.690 C 342.464 315.067,343.200 315.995,343.200 315.752 C 343.200 314.473,339.315 309.896,337.400 308.920 C 336.740 308.584,336.380 308.474,336.600 308.676 M343.399 317.000 C 351.558 337.578,339.505 358.832,323.839 351.494 C 322.541 350.886,321.393 350.473,321.290 350.577 C 320.454 351.413,326.055 352.999,329.800 352.987 C 339.770 352.953,346.392 344.175,346.538 330.800 C 346.593 325.717,344.951 318.103,343.475 316.600 C 343.217 316.337,343.191 316.475,343.399 317.000 M151.600 318.265 C 155.965 318.558,160.311 318.575,160.140 318.300 C 160.037 318.135,157.668 318.032,154.876 318.072 C 152.084 318.112,150.610 318.199,151.600 318.265 M202.118 319.098 C 203.833 319.173,206.533 319.172,208.118 319.097 C 209.703 319.021,208.300 318.959,205.000 318.960 C 201.700 318.961,200.403 319.022,202.118 319.098 M357.079 320.400 C 357.198 321.390,357.435 322.830,357.607 323.600 L 357.920 325.000 357.929 323.400 C 357.934 322.520,357.697 321.080,357.401 320.200 L 356.864 318.600 357.079 320.400 M300.553 321.859 C 300.141 323.987,300.128 333.297,300.533 336.134 C 301.102 340.124,301.260 338.331,300.752 333.644 C 300.380 330.216,300.376 328.209,300.734 324.928 C 301.203 320.636,301.106 319.002,300.553 321.859 M313.038 322.683 C 312.407 325.378,312.363 334.588,312.971 336.800 C 313.304 338.010,313.487 338.460,313.379 337.800 C 312.831 334.461,312.726 327.778,313.178 324.976 C 313.656 322.012,313.561 320.451,313.038 322.683 M358.120 327.600 C 358.120 328.810,358.195 329.305,358.287 328.700 C 358.378 328.095,358.378 327.105,358.287 326.500 C 358.195 325.895,358.120 326.390,358.120 327.600 M358.109 333.200 C 358.109 334.190,358.187 334.595,358.282 334.100 C 358.378 333.605,358.378 332.795,358.282 332.300 C 358.187 331.805,358.109 332.210,358.109 333.200 M357.431 337.900 C 356.754 341.831,356.755 341.815,357.158 341.179 C 357.593 340.492,358.225 336.400,357.896 336.400 C 357.782 336.400,357.573 337.075,357.431 337.900 M301.230 339.216 C 301.014 343.672,306.176 352.690,311.309 356.825 C 321.091 364.706,340.552 363.773,349.228 355.008 C 352.035 352.173,357.445 342.911,356.718 342.185 C 356.634 342.100,356.047 343.239,355.414 344.716 C 350.383 356.457,342.328 361.611,329.036 361.593 C 314.910 361.574,305.709 354.804,302.139 341.802 C 301.655 340.041,301.246 338.877,301.230 339.216 M314.180 341.222 C 314.754 344.209,317.897 348.875,320.146 350.078 C 320.585 350.313,319.965 349.536,318.769 348.352 C 317.529 347.125,316.227 345.340,315.740 344.200 C 315.270 343.100,314.682 341.750,314.434 341.200 L 313.983 340.200 314.180 341.222 M117.440 356.335 C 117.327 356.518,117.110 362.728,116.960 370.135 L 116.686 383.600 118.643 383.530 L 120.600 383.460 118.839 383.304 L 117.078 383.148 117.337 377.474 C 117.480 374.353,117.598 368.425,117.599 364.300 L 117.600 356.800 118.976 356.800 C 119.733 356.800,120.464 356.620,120.600 356.400 C 120.749 356.159,120.212 356.000,119.247 356.000 C 118.367 356.000,117.554 356.151,117.440 356.335 M151.000 356.800 C 151.440 356.989,155.040 357.144,159.000 357.144 C 163.369 357.144,165.885 357.009,165.400 356.800 C 164.960 356.611,161.360 356.456,157.400 356.456 C 153.031 356.456,150.515 356.591,151.000 356.800 M193.199 357.300 C 193.200 357.465,196.755 357.565,201.100 357.522 C 209.096 357.442,208.167 357.293,198.499 357.104 C 195.584 357.047,193.199 357.135,193.199 357.300 M238.399 357.700 C 238.400 357.865,239.329 358.000,240.464 358.000 L 242.528 358.000 242.316 371.500 C 242.198 378.925,242.242 384.010,242.412 382.800 C 242.582 381.590,242.739 375.442,242.760 369.137 L 242.800 357.674 240.599 357.537 C 239.389 357.462,238.399 357.535,238.399 357.700 M305.400 399.799 C 302.258 400.905,300.694 404.411,302.008 407.400 C 302.235 407.916,302.279 407.410,302.133 405.971 C 301.500 399.738,310.117 397.517,312.881 403.200 C 313.269 403.998,313.570 404.305,313.581 403.914 C 313.625 402.325,308.222 398.452,307.027 399.218 C 307.012 399.227,306.280 399.489,305.400 399.799 M347.655 400.064 C 346.062 400.853,344.368 402.814,344.427 403.800 C 344.440 404.020,344.733 403.635,345.077 402.945 C 346.759 399.571,353.180 398.974,354.821 402.038 C 355.065 402.495,355.371 402.762,355.501 402.633 C 355.883 402.250,353.907 400.342,352.513 399.748 C 350.735 398.991,349.685 399.059,347.655 400.064 M355.728 405.600 C 355.728 407.030,355.801 407.615,355.889 406.900 C 355.978 406.185,355.978 405.015,355.889 404.300 C 355.801 403.585,355.728 404.170,355.728 405.600 M313.995 405.787 C 317.514 415.041,325.813 427.200,328.611 427.200 C 331.835 427.200,343.154 415.021,341.484 413.350 C 341.387 413.254,340.809 414.162,340.198 415.369 C 337.576 420.550,331.395 426.800,328.891 426.800 C 326.184 426.800,321.844 420.954,316.510 410.121 C 314.032 405.087,313.154 403.575,313.995 405.787 M343.603 406.389 C 343.356 407.308,343.227 408.271,343.317 408.530 C 343.406 408.788,343.674 408.102,343.912 407.005 C 344.443 404.549,344.219 404.102,343.603 406.389 M302.443 408.532 C 301.915 412.642,314.501 430.357,320.890 434.497 C 323.413 436.132,323.370 435.839,323.057 449.101 L 322.789 460.450 323.964 461.625 C 324.628 462.290,325.543 462.787,326.069 462.770 C 326.823 462.745,326.734 462.644,325.600 462.236 C 323.326 461.419,323.288 461.165,323.511 448.040 L 323.713 436.115 320.691 433.880 C 314.377 429.211,305.949 417.595,302.927 409.400 C 302.684 408.740,302.466 408.349,302.443 408.532 M354.817 410.500 C 352.795 417.252,344.628 428.014,337.269 433.626 L 334.738 435.556 334.582 447.263 C 334.403 460.725,334.369 460.987,332.662 462.028 C 331.352 462.826,331.850 463.123,333.245 462.376 C 334.632 461.634,334.809 460.172,335.007 447.856 L 335.200 435.800 338.539 433.119 C 346.031 427.104,354.122 416.049,355.387 410.100 C 355.783 408.239,355.418 408.495,354.817 410.500 M342.265 410.871 C 341.904 411.790,341.692 412.625,341.793 412.726 C 341.971 412.905,342.390 411.973,342.974 410.100 C 343.450 408.572,342.958 409.107,342.265 410.871 M328.500 463.076 C 328.885 463.176,329.515 463.176,329.900 463.076 C 330.285 462.975,329.970 462.893,329.200 462.893 C 328.430 462.893,328.115 462.975,328.500 463.076 " stroke="none" fill="#a8ead7" fill-rule="evenodd"></path><path id="path4" d="M182.772 14.289 C 180.635 14.771,177.753 27.289,175.979 43.800 C 175.719 46.220,175.458 48.470,175.399 48.800 C 175.341 49.130,175.192 51.110,175.070 53.200 L 174.847 57.000 175.414 52.600 C 175.726 50.180,176.274 45.680,176.631 42.600 C 178.036 30.486,180.077 19.810,181.627 16.474 C 182.876 13.785,183.951 14.203,185.556 18.000 C 185.957 18.949,185.966 18.939,185.733 17.800 C 185.198 15.184,184.176 13.973,182.772 14.289 M186.279 20.800 C 186.646 23.445,187.247 25.068,186.964 22.647 C 186.838 21.573,186.576 20.313,186.382 19.847 C 186.147 19.281,186.112 19.597,186.279 20.800 M76.612 25.577 C 75.183 28.341,74.892 40.665,75.961 53.200 C 76.195 55.950,76.575 60.540,76.805 63.400 C 77.034 66.260,77.287 69.140,77.367 69.800 C 77.447 70.460,77.629 72.440,77.772 74.200 C 78.081 77.993,78.879 84.963,80.198 95.400 C 80.726 99.580,81.275 104.125,81.418 105.501 C 81.562 106.876,81.805 108.080,81.960 108.175 C 82.115 108.271,82.012 106.425,81.732 104.074 C 81.160 99.268,80.260 91.592,79.635 86.200 C 78.408 75.605,77.998 71.705,77.596 66.800 C 77.352 63.830,76.891 58.520,76.571 55.000 C 75.931 47.947,75.806 29.918,76.380 27.444 C 76.863 25.363,77.652 24.586,78.709 25.151 C 79.703 25.683,83.252 32.770,83.841 35.400 C 83.989 36.060,84.249 36.780,84.419 37.000 C 84.589 37.220,84.855 38.077,85.010 38.904 C 85.232 40.093,86.000 41.462,86.000 40.669 C 86.000 40.262,83.937 34.145,83.584 33.505 C 83.373 33.123,83.199 32.583,83.198 32.305 C 83.197 32.027,82.552 30.540,81.765 29.000 C 79.375 24.324,77.801 23.278,76.612 25.577 M187.465 27.000 C 187.566 28.320,187.903 31.200,188.213 33.400 C 188.523 35.600,188.981 40.010,189.230 43.200 C 189.479 46.390,189.779 49.090,189.896 49.200 C 190.496 49.763,188.646 31.084,187.618 26.200 C 187.336 24.858,187.311 24.987,187.465 27.000 M287.779 26.706 C 286.989 27.259,284.665 30.798,284.923 31.057 C 285.065 31.198,285.307 30.974,285.461 30.557 C 285.983 29.146,287.691 27.200,288.408 27.200 C 291.140 27.200,290.788 47.109,287.617 72.000 C 287.162 75.571,287.165 77.757,287.621 75.200 C 288.087 72.590,289.483 59.371,290.190 50.876 C 291.569 34.309,290.613 24.726,287.779 26.706 M283.810 32.780 C 283.242 33.879,282.964 35.169,283.387 34.746 C 283.719 34.415,284.818 31.600,284.616 31.600 C 284.508 31.600,284.146 32.131,283.810 32.780 M282.419 36.151 C 282.197 36.735,281.660 38.245,281.226 39.506 C 280.792 40.768,279.790 43.600,279.000 45.800 C 277.261 50.641,274.790 58.924,275.017 59.151 C 275.107 59.241,275.260 59.064,275.355 58.757 C 276.600 54.775,281.133 41.045,282.008 38.610 C 283.038 35.744,283.401 33.566,282.419 36.151 M86.246 42.400 C 86.377 43.170,86.645 43.971,86.842 44.180 C 87.347 44.716,87.250 44.074,86.573 42.400 L 86.007 41.000 86.246 42.400 M87.452 45.986 C 87.589 46.748,87.948 48.008,88.249 48.786 L 88.798 50.200 88.548 48.814 C 88.411 48.052,88.052 46.792,87.751 46.014 L 87.202 44.600 87.452 45.986 M190.251 54.000 C 190.358 56.530,190.609 60.580,190.810 63.000 C 191.011 65.420,191.363 72.080,191.592 77.800 C 191.821 83.520,192.182 91.620,192.395 95.800 C 192.609 99.980,192.985 114.920,193.232 129.000 C 193.656 153.207,193.730 155.204,194.186 154.747 C 194.439 154.495,196.006 144.642,195.975 143.507 C 195.925 141.735,195.329 144.022,195.028 147.142 C 194.435 153.268,194.051 151.750,194.028 143.200 C 194.016 138.470,193.828 128.750,193.611 121.600 C 192.643 89.736,192.324 80.604,191.976 74.800 C 191.772 71.390,191.407 65.270,191.166 61.200 C 190.924 57.130,190.576 52.810,190.392 51.600 C 190.149 50.005,190.111 50.666,190.251 54.000 M89.043 51.800 C 89.186 52.680,89.470 53.670,89.674 54.000 C 89.919 54.395,89.957 54.052,89.786 53.000 C 89.644 52.120,89.360 51.130,89.155 50.800 C 88.911 50.405,88.872 50.748,89.043 51.800 M147.373 55.900 C 146.614 57.685,145.602 62.192,145.643 63.600 C 145.659 64.150,146.018 62.902,146.440 60.826 C 146.863 58.750,147.560 56.455,147.991 55.726 C 148.421 54.997,148.602 54.400,148.392 54.400 C 148.182 54.400,147.724 55.075,147.373 55.900 M150.361 55.442 C 151.739 57.192,153.935 62.914,154.609 66.504 C 154.764 67.332,155.057 68.112,155.261 68.238 C 155.684 68.499,155.411 66.990,154.604 64.600 C 154.307 63.720,153.780 62.010,153.432 60.800 C 152.675 58.165,150.825 54.727,150.025 54.469 C 149.663 54.352,149.787 54.711,150.361 55.442 M90.273 56.200 C 90.404 57.080,90.660 58.092,90.842 58.448 C 91.160 59.072,91.426 60.038,92.587 64.800 C 94.073 70.892,96.827 81.361,96.986 81.519 C 97.300 81.833,96.699 78.662,96.139 77.050 C 95.842 76.197,95.600 75.183,95.600 74.796 C 95.600 74.409,95.335 73.216,95.011 72.146 C 94.687 71.076,93.779 67.680,92.993 64.600 C 92.208 61.520,91.385 58.296,91.166 57.435 C 90.565 55.080,89.987 54.280,90.273 56.200 M215.107 55.500 C 213.602 57.207,210.776 64.109,211.347 64.681 C 211.457 64.791,211.745 64.098,211.987 63.140 C 212.609 60.675,215.103 55.723,215.871 55.428 C 217.949 54.631,219.348 60.870,220.036 74.000 C 220.738 87.413,219.503 124.245,217.406 152.400 C 216.608 163.127,216.272 169.438,216.514 169.200 C 216.625 169.090,216.920 166.030,217.169 162.400 C 217.418 158.770,217.887 152.110,218.212 147.600 C 218.537 143.090,218.991 135.710,219.221 131.200 C 219.451 126.690,219.807 119.760,220.012 115.800 C 222.067 76.188,219.938 50.020,215.107 55.500 M116.726 59.279 C 115.990 60.421,115.191 62.705,115.228 63.560 C 115.243 63.912,115.576 63.262,115.967 62.115 C 118.070 55.944,120.432 58.863,123.784 71.775 C 124.863 75.931,125.466 77.336,124.997 74.600 C 123.277 64.579,118.734 56.163,116.726 59.279 M174.280 60.800 C 173.839 65.331,173.485 72.608,173.714 72.399 C 174.012 72.128,174.941 59.422,174.713 58.740 C 174.613 58.443,174.418 59.370,174.280 60.800 M246.697 60.034 C 245.932 60.479,244.217 63.551,244.549 63.882 C 244.661 63.994,245.015 63.461,245.334 62.696 C 251.627 47.634,253.692 98.084,249.192 156.961 C 248.698 163.427,249.374 164.930,250.378 159.600 C 250.606 158.390,251.335 154.970,251.999 152.000 C 254.110 142.549,254.475 140.742,254.309 140.576 C 254.138 140.404,253.756 141.890,252.406 148.000 C 251.003 154.347,249.905 158.838,249.786 158.716 C 249.724 158.652,250.005 153.020,250.410 146.200 C 253.442 95.159,252.575 61.534,248.182 59.848 C 247.409 59.552,247.556 59.533,246.697 60.034 M273.676 62.679 C 272.370 67.042,271.934 68.867,272.146 69.079 C 272.255 69.189,272.558 68.495,272.818 67.539 C 273.078 66.583,273.649 64.574,274.087 63.075 C 274.524 61.575,274.794 60.261,274.687 60.153 C 274.579 60.046,274.124 61.182,273.676 62.679 M243.771 65.043 C 243.635 65.459,243.193 66.700,242.788 67.800 C 242.382 68.900,241.949 70.430,241.824 71.200 C 241.699 71.970,242.216 70.803,242.972 68.607 C 243.728 66.411,244.273 64.540,244.183 64.450 C 244.093 64.359,243.908 64.626,243.771 65.043 M114.666 66.100 C 114.221 68.700,113.988 73.006,114.336 72.200 C 114.682 71.401,115.302 64.800,115.032 64.800 C 114.953 64.800,114.789 65.385,114.666 66.100 M210.009 67.970 C 208.520 72.971,206.115 83.153,204.428 91.600 C 201.917 104.174,201.644 105.648,201.423 107.800 C 201.201 109.965,201.781 107.564,203.018 101.200 C 206.039 85.651,208.926 72.807,210.462 68.074 C 210.913 66.685,211.186 65.453,211.069 65.336 C 210.952 65.219,210.475 66.404,210.009 67.970 M145.067 68.090 C 144.689 71.344,144.260 82.627,144.524 82.388 C 144.775 82.160,145.672 66.338,145.447 66.113 C 145.373 66.040,145.202 66.929,145.067 68.090 M155.869 70.600 C 156.257 73.027,156.834 74.572,156.541 72.400 C 156.407 71.410,156.144 70.240,155.955 69.800 C 155.735 69.284,155.704 69.569,155.869 70.600 M50.558 71.007 C 49.790 72.180,49.947 85.441,50.791 90.600 C 51.042 92.140,51.517 95.200,51.845 97.400 C 52.382 101.001,53.344 106.643,53.848 109.147 C 53.953 109.668,54.121 110.012,54.222 109.912 C 54.322 109.811,54.114 108.125,53.760 106.165 C 51.069 91.281,49.632 74.471,50.790 71.426 C 51.360 69.926,52.523 70.149,54.169 72.072 C 54.956 72.992,55.600 73.569,55.600 73.355 C 55.600 72.617,52.800 70.000,52.010 70.000 C 51.575 70.000,50.921 70.453,50.558 71.007 M271.493 70.273 C 271.188 70.804,270.746 73.600,270.966 73.600 C 271.252 73.600,272.093 70.360,271.866 70.133 C 271.764 70.031,271.596 70.094,271.493 70.273 M173.042 76.082 C 172.628 81.440,171.985 95.318,172.143 95.476 C 172.358 95.691,172.737 90.837,173.236 81.474 C 173.674 73.274,173.541 69.607,173.042 76.082 M240.803 74.389 C 240.556 75.308,240.422 76.266,240.506 76.519 C 240.591 76.772,240.879 76.107,241.148 75.041 C 241.416 73.975,241.550 73.016,241.444 72.911 C 241.339 72.806,241.050 73.471,240.803 74.389 M311.686 73.976 C 308.952 76.710,299.919 93.434,300.008 95.595 C 300.013 95.708,301.953 91.930,304.320 87.200 C 311.017 73.815,313.866 70.526,314.853 75.043 L 315.105 76.200 315.153 75.129 C 315.255 72.804,313.456 72.206,311.686 73.976 M58.617 79.700 C 60.183 82.835,61.575 85.760,61.709 86.200 C 61.843 86.640,62.426 88.080,63.003 89.400 C 63.581 90.720,64.774 93.600,65.655 95.800 C 66.536 98.000,67.495 100.340,67.786 101.000 C 68.276 102.111,69.579 105.591,70.167 107.357 C 70.305 107.774,70.507 108.026,70.615 107.919 C 70.833 107.700,68.937 102.360,67.163 98.200 C 66.976 97.760,66.443 96.413,65.980 95.207 C 65.517 94.001,64.702 92.060,64.169 90.895 C 63.636 89.730,63.200 88.659,63.200 88.516 C 63.200 88.019,56.262 74.000,56.016 74.000 C 55.880 74.000,57.050 76.565,58.617 79.700 M113.342 79.475 C 112.891 86.228,113.062 139.478,113.555 146.400 L 113.941 151.800 113.774 144.800 C 113.274 123.875,113.177 99.464,113.547 87.816 C 113.987 73.939,113.913 70.913,113.342 79.475 M157.079 76.000 C 157.446 78.645,158.047 80.268,157.764 77.847 C 157.638 76.773,157.376 75.513,157.182 75.047 C 156.947 74.481,156.912 74.797,157.079 76.000 M270.000 76.000 C 269.751 76.924,269.637 77.771,269.747 77.881 C 269.857 77.991,270.151 77.324,270.400 76.400 C 270.649 75.476,270.763 74.629,270.653 74.519 C 270.543 74.409,270.249 75.076,270.000 76.000 M125.450 78.153 C 125.689 80.321,126.360 82.479,126.336 81.000 C 126.329 80.560,126.078 79.300,125.779 78.200 L 125.235 76.200 125.450 78.153 M239.612 78.958 C 239.337 79.938,239.193 80.978,239.291 81.270 C 239.389 81.561,239.699 80.845,239.980 79.678 C 240.605 77.079,240.303 76.489,239.612 78.958 M286.712 79.000 C 286.567 79.660,286.356 81.640,286.243 83.400 L 286.038 86.600 286.632 83.200 C 287.230 79.784,287.295 76.348,286.712 79.000 M268.635 81.035 C 267.764 84.505,268.087 84.828,269.012 81.412 C 269.402 79.969,269.628 78.695,269.513 78.580 C 269.398 78.465,269.003 79.570,268.635 81.035 M158.675 83.800 C 158.804 85.120,159.053 86.560,159.229 87.000 L 159.549 87.800 159.557 87.000 C 159.562 86.560,159.312 85.120,159.003 83.800 L 158.441 81.400 158.675 83.800 M97.264 82.600 C 97.271 83.040,97.522 84.300,97.821 85.400 L 98.365 87.400 98.150 85.447 C 97.911 83.279,97.240 81.121,97.264 82.600 M126.670 84.000 C 126.798 85.210,127.055 86.560,127.240 87.000 C 127.444 87.482,127.479 86.926,127.331 85.600 C 127.195 84.390,126.939 83.040,126.760 82.600 C 126.573 82.137,126.534 82.728,126.670 84.000 M238.390 84.669 C 238.126 85.951,237.753 87.540,237.562 88.200 C 237.233 89.335,235.859 96.539,233.214 111.000 C 231.116 122.474,230.057 129.613,230.514 129.198 C 230.637 129.087,231.009 127.197,231.342 124.998 C 232.578 116.839,232.890 114.935,233.438 112.200 C 234.113 108.830,234.888 104.719,235.813 99.600 C 236.191 97.510,236.943 93.730,237.484 91.200 C 239.062 83.829,239.262 82.729,239.061 82.528 C 238.957 82.423,238.655 83.387,238.390 84.669 M314.667 85.500 C 314.143 89.714,313.991 92.585,314.333 91.800 C 314.679 91.007,315.324 83.600,315.047 83.600 C 314.968 83.600,314.797 84.455,314.667 85.500 M267.507 85.000 C 267.361 85.440,267.141 86.520,267.017 87.400 L 266.792 89.000 267.410 87.400 C 267.750 86.520,267.970 85.440,267.900 85.000 L 267.771 84.200 267.507 85.000 M98.523 88.500 C 98.639 88.995,98.944 90.449,99.201 91.732 C 99.459 93.014,99.764 93.969,99.880 93.853 C 100.133 93.600,98.837 87.600,98.529 87.600 C 98.411 87.600,98.408 88.005,98.523 88.500 M285.202 90.983 C 284.938 92.844,284.815 94.599,284.929 94.883 C 285.052 95.188,285.162 95.071,285.199 94.600 C 285.233 94.160,285.331 93.440,285.416 93.000 C 285.774 91.151,286.087 87.600,285.893 87.600 C 285.777 87.600,285.467 89.122,285.202 90.983 M159.848 90.000 C 159.966 91.210,160.224 92.830,160.420 93.600 C 160.616 94.370,161.040 96.800,161.364 99.000 C 161.687 101.200,162.238 104.800,162.588 107.000 C 162.939 109.200,163.941 115.950,164.816 122.000 C 165.690 128.050,166.487 133.270,166.585 133.600 C 166.910 134.686,166.370 128.672,165.812 125.000 C 165.512 123.020,164.964 119.330,164.595 116.800 C 164.226 114.270,163.569 110.040,163.136 107.400 C 162.703 104.760,162.201 101.520,162.020 100.200 C 161.230 94.430,159.471 86.171,159.848 90.000 M266.176 90.253 C 266.031 90.884,265.672 92.300,265.376 93.400 C 262.716 103.316,260.484 112.845,260.928 112.400 C 261.299 112.027,266.883 89.550,266.660 89.327 C 266.538 89.205,266.321 89.622,266.176 90.253 M128.244 92.600 C 128.362 93.920,128.618 95.630,128.813 96.400 C 129.092 97.498,129.123 97.283,128.956 95.400 C 128.838 94.080,128.582 92.370,128.387 91.600 C 128.108 90.502,128.077 90.717,128.244 92.600 M313.281 95.898 C 312.514 100.528,312.342 102.425,312.817 101.000 C 313.273 99.631,314.116 93.583,313.883 93.350 C 313.798 93.265,313.527 94.412,313.281 95.898 M100.252 96.400 C 100.390 97.390,100.653 98.364,100.837 98.565 C 101.254 99.022,100.817 96.018,100.346 95.200 C 100.139 94.840,100.102 95.320,100.252 96.400 M284.081 99.105 C 283.828 100.807,283.533 103.190,283.426 104.400 C 283.119 107.869,283.856 104.616,284.409 100.064 C 284.961 95.515,284.721 94.811,284.081 99.105 M299.632 96.051 C 299.614 96.189,299.328 96.954,298.995 97.751 C 298.662 98.548,298.477 99.200,298.584 99.200 C 298.973 99.200,300.044 96.734,299.856 96.273 C 299.750 96.013,299.649 95.913,299.632 96.051 M129.481 100.400 C 129.615 101.830,129.868 103.450,130.044 104.000 C 130.226 104.571,130.258 103.886,130.119 102.400 C 129.985 100.970,129.732 99.350,129.556 98.800 C 129.374 98.229,129.342 98.914,129.481 100.400 M171.449 102.472 C 171.090 107.738,170.712 121.021,170.928 120.800 C 171.209 120.514,172.146 99.613,171.890 99.356 C 171.772 99.239,171.574 100.641,171.449 102.472 M101.207 99.833 C 101.211 100.035,101.487 101.460,101.822 103.000 C 102.156 104.540,102.594 106.610,102.796 107.600 C 102.997 108.590,103.537 111.110,103.994 113.200 C 104.452 115.290,105.083 118.260,105.398 119.800 C 105.713 121.340,106.440 124.760,107.015 127.400 C 109.515 138.879,110.170 142.045,111.354 148.358 C 111.700 150.205,112.077 151.810,112.192 151.925 C 112.569 152.302,112.414 151.277,111.165 145.103 C 110.486 141.746,109.692 137.740,109.402 136.200 C 108.875 133.413,107.284 125.963,105.344 117.200 C 104.784 114.670,104.160 111.790,103.958 110.800 C 102.537 103.830,101.180 98.424,101.207 99.833 M297.800 100.200 C 297.059 102.217,295.550 106.046,294.488 108.600 C 293.360 111.315,291.748 115.442,289.724 120.800 C 289.184 122.230,288.598 123.760,288.421 124.200 C 288.244 124.640,287.897 125.503,287.650 126.119 C 287.402 126.734,287.204 127.454,287.209 127.719 C 287.219 128.236,287.919 126.782,288.905 124.200 C 289.241 123.320,290.148 120.980,290.921 119.000 C 291.693 117.020,292.876 113.960,293.550 112.200 C 294.223 110.440,295.590 107.021,296.588 104.602 C 297.585 102.182,298.332 100.022,298.247 99.802 C 298.162 99.581,297.961 99.760,297.800 100.200 M311.914 103.800 C 311.773 104.240,311.563 105.590,311.448 106.800 L 311.237 109.000 311.816 106.800 C 312.134 105.590,312.344 104.240,312.283 103.800 L 312.171 103.000 311.914 103.800 M130.653 107.244 C 130.777 108.479,131.034 110.099,131.224 110.844 C 131.474 111.826,131.506 111.501,131.342 109.669 C 131.217 108.277,130.960 106.657,130.771 106.069 C 130.536 105.339,130.499 105.712,130.653 107.244 M282.652 108.700 C 282.151 112.136,282.009 114.624,282.378 113.483 C 282.823 112.108,283.373 107.200,283.082 107.200 C 282.965 107.200,282.772 107.875,282.652 108.700 M71.023 109.400 C 71.177 110.060,71.473 110.780,71.680 111.000 C 71.917 111.252,71.953 110.956,71.777 110.200 C 71.623 109.540,71.327 108.820,71.120 108.600 C 70.883 108.348,70.847 108.644,71.023 109.400 M82.000 109.247 C 82.000 110.502,84.428 127.761,84.633 127.967 C 84.868 128.201,84.594 125.421,83.968 121.200 C 83.756 119.770,83.322 116.460,83.003 113.845 C 82.501 109.721,82.000 107.425,82.000 109.247 M309.853 114.227 C 307.876 123.540,306.768 128.514,305.404 134.200 C 302.619 145.811,302.303 147.236,302.474 147.408 C 302.693 147.626,306.317 132.867,308.221 124.000 C 309.001 120.370,310.008 115.744,310.460 113.721 C 310.911 111.697,311.206 109.819,311.116 109.548 C 311.026 109.277,310.457 111.382,309.853 114.227 M200.701 111.000 C 200.562 111.440,200.352 112.880,200.235 114.200 L 200.022 116.600 200.620 114.000 C 201.199 111.486,201.259 109.237,200.701 111.000 M54.611 112.953 C 54.986 115.833,55.590 117.071,55.317 114.400 C 55.193 113.190,54.927 111.930,54.725 111.600 C 54.488 111.215,54.448 111.699,54.611 112.953 M72.591 113.899 C 73.257 116.341,74.888 119.954,74.533 118.200 C 74.399 117.540,74.096 116.640,73.859 116.200 C 73.365 115.282,73.407 115.407,73.004 113.692 C 72.835 112.972,72.556 112.296,72.384 112.190 C 72.212 112.084,72.305 112.853,72.591 113.899 M131.655 113.000 C 131.633 113.440,131.888 115.780,132.220 118.200 C 132.917 123.270,133.335 126.547,135.563 144.400 C 137.791 162.246,139.017 172.932,139.441 178.200 C 139.583 179.960,139.842 182.210,140.017 183.200 C 140.435 185.567,140.082 178.929,139.570 174.800 C 139.365 173.150,138.925 169.100,138.592 165.800 C 138.258 162.500,137.734 157.730,137.426 155.200 C 137.118 152.670,136.659 148.710,136.404 146.400 C 135.362 136.929,131.734 111.416,131.655 113.000 M260.269 113.953 C 260.142 114.588,259.917 115.623,259.768 116.253 C 259.580 117.047,259.626 117.277,259.915 117.000 C 260.146 116.780,260.459 115.745,260.613 114.700 C 260.914 112.645,260.647 112.065,260.269 113.953 M144.690 126.000 C 144.808 132.710,145.033 139.820,145.189 141.800 C 145.345 143.780,145.392 140.270,145.292 134.000 C 145.193 127.730,144.968 120.620,144.794 118.200 C 144.598 115.493,144.558 118.494,144.690 126.000 M281.441 116.453 C 281.333 116.974,281.137 118.300,281.007 119.400 C 280.877 120.500,280.602 122.210,280.395 123.200 C 280.188 124.190,279.640 127.430,279.176 130.400 C 278.713 133.370,278.179 136.790,277.990 138.000 C 277.564 140.722,275.330 153.692,274.958 155.600 C 274.808 156.370,274.823 156.873,274.991 156.718 C 275.271 156.461,276.672 149.265,277.585 143.400 C 277.791 142.080,278.402 138.390,278.944 135.200 C 280.953 123.376,282.065 115.932,281.855 115.722 C 281.736 115.603,281.550 115.932,281.441 116.453 M55.849 119.123 C 55.977 120.290,56.239 121.730,56.432 122.323 C 56.680 123.083,56.715 122.776,56.551 121.277 C 56.423 120.110,56.161 118.670,55.968 118.077 C 55.720 117.317,55.685 117.624,55.849 119.123 M199.245 120.111 C 198.776 122.802,198.677 124.256,198.983 123.950 C 199.270 123.663,200.095 117.961,199.880 117.747 C 199.776 117.642,199.490 118.706,199.245 120.111 M258.800 120.200 C 258.542 121.445,258.420 122.553,258.530 122.663 C 258.640 122.773,258.942 121.845,259.200 120.600 C 259.458 119.355,259.580 118.247,259.470 118.137 C 259.360 118.027,259.058 118.955,258.800 120.200 M75.004 120.787 C 75.168 121.550,75.443 122.450,75.615 122.787 C 76.177 123.888,77.379 127.263,80.212 135.699 C 81.746 140.264,83.048 143.854,83.107 143.679 C 83.301 143.099,75.511 120.158,74.937 119.617 C 74.810 119.498,74.840 120.024,75.004 120.787 M257.389 126.189 C 257.016 127.869,256.793 129.326,256.894 129.427 C 256.995 129.528,257.398 128.251,257.789 126.589 C 258.181 124.928,258.404 123.471,258.285 123.352 C 258.166 123.233,257.763 124.510,257.389 126.189 M56.992 125.000 C 57.560 128.447,58.077 130.857,58.217 130.716 C 58.420 130.514,57.250 123.916,56.961 123.630 C 56.833 123.504,56.847 124.120,56.992 125.000 M170.258 126.450 C 170.116 127.807,169.979 131.906,169.953 135.559 C 169.927 139.211,169.788 144.630,169.643 147.600 L 169.381 153.000 169.061 149.800 C 168.885 148.040,168.573 146.150,168.368 145.600 C 168.060 144.776,168.027 144.882,168.179 146.200 C 168.280 147.080,168.485 149.240,168.633 151.000 C 169.334 159.289,169.837 155.520,170.437 137.470 C 170.858 124.812,170.800 121.261,170.258 126.450 M198.080 127.088 C 197.447 130.500,197.074 133.833,197.355 133.566 C 197.658 133.278,198.895 125.162,198.671 124.937 C 198.582 124.848,198.316 125.816,198.080 127.088 M286.637 128.843 C 286.537 129.149,285.559 131.920,284.464 135.000 C 283.369 138.080,282.358 141.050,282.217 141.600 C 281.717 143.558,282.737 141.415,283.756 138.368 C 284.302 136.736,285.297 133.881,285.967 132.025 C 286.636 130.170,287.102 128.569,287.002 128.468 C 286.901 128.368,286.737 128.536,286.637 128.843 M85.069 131.600 C 85.197 133.030,85.448 134.920,85.629 135.800 C 85.847 136.868,85.879 136.345,85.724 134.229 C 85.597 132.484,85.345 130.594,85.165 130.029 C 84.965 129.403,84.928 130.017,85.069 131.600 M229.875 131.300 C 229.223 136.055,229.184 136.594,229.551 135.772 C 229.964 134.847,230.602 129.600,230.301 129.600 C 230.195 129.600,230.004 130.365,229.875 131.300 M256.262 130.700 C 255.810 132.348,255.597 134.578,255.947 134.000 C 256.375 133.292,256.964 130.000,256.662 130.000 C 256.548 130.000,256.367 130.315,256.262 130.700 M58.659 133.200 C 58.792 134.410,59.056 135.760,59.246 136.200 C 59.671 137.187,59.230 133.466,58.749 132.008 C 58.539 131.372,58.506 131.811,58.659 133.200 M196.426 137.713 C 196.133 139.866,195.978 141.712,196.082 141.815 C 196.368 142.101,197.322 135.517,197.128 134.600 C 197.035 134.160,196.719 135.561,196.426 137.713 M167.050 137.423 C 167.171 139.196,167.427 141.266,167.619 142.023 C 167.862 142.979,167.902 142.415,167.750 140.177 C 167.629 138.404,167.373 136.334,167.181 135.577 C 166.938 134.621,166.898 135.185,167.050 137.423 M254.808 137.167 C 254.543 138.273,254.397 139.392,254.485 139.654 C 254.572 139.916,254.875 139.097,255.157 137.834 C 255.440 136.571,255.586 135.452,255.481 135.347 C 255.376 135.243,255.073 136.061,254.808 137.167 M59.854 139.000 C 60.314 141.719,60.827 142.863,60.604 140.671 C 60.496 139.610,60.222 138.440,59.995 138.071 C 59.692 137.577,59.655 137.823,59.854 139.000 M86.264 140.000 C 86.389 141.430,86.640 143.230,86.822 144.000 C 87.038 144.911,87.071 144.351,86.915 142.400 C 86.784 140.750,86.533 138.950,86.357 138.400 C 86.169 137.813,86.131 138.473,86.264 140.000 M228.649 138.853 C 228.265 140.777,227.857 145.829,228.106 145.600 C 228.381 145.346,229.285 137.951,229.067 137.734 C 228.978 137.645,228.790 138.149,228.649 138.853 M61.060 144.400 C 61.186 145.390,61.462 146.920,61.674 147.800 C 61.885 148.680,62.237 150.390,62.455 151.600 C 62.673 152.810,63.004 154.160,63.192 154.600 C 63.380 155.040,63.924 157.200,64.402 159.400 C 64.880 161.600,65.605 164.660,66.012 166.200 C 66.419 167.740,67.147 170.710,67.630 172.800 C 68.730 177.569,69.670 180.844,69.351 178.800 C 69.094 177.151,68.261 173.528,64.659 158.400 C 63.899 155.210,62.883 150.710,62.399 148.400 C 61.412 143.677,60.700 141.550,61.060 144.400 M281.417 143.483 C 279.490 148.383,274.605 163.091,275.044 162.673 C 275.232 162.494,275.594 161.684,275.848 160.873 C 276.102 160.063,277.427 156.250,278.792 152.400 C 280.158 148.550,281.435 144.872,281.631 144.226 C 282.025 142.925,281.861 142.354,281.417 143.483 M84.043 147.090 C 84.481 148.581,84.994 150.340,85.182 151.000 C 86.058 154.067,88.734 161.743,88.765 161.277 C 88.784 160.990,88.109 158.650,87.264 156.077 C 85.608 151.034,84.580 147.650,84.169 145.896 C 84.028 145.289,83.762 144.700,83.578 144.587 C 83.395 144.473,83.604 145.600,84.043 147.090 M227.296 148.856 C 226.644 152.908,226.245 157.045,226.532 156.781 C 226.831 156.507,228.098 146.893,227.909 146.328 C 227.833 146.099,227.557 147.237,227.296 148.856 M145.659 149.000 C 145.585 150.525,146.388 170.410,146.602 172.348 C 146.690 173.147,146.948 177.040,147.175 181.000 C 147.761 191.234,148.740 205.113,149.206 209.800 C 149.425 212.000,149.787 216.500,150.011 219.800 C 150.235 223.100,150.588 227.600,150.795 229.800 C 151.003 232.000,151.451 236.950,151.791 240.800 C 152.131 244.650,152.582 249.330,152.794 251.200 C 153.005 253.070,153.281 256.040,153.408 257.800 C 153.683 261.611,154.021 264.112,154.233 263.900 C 154.317 263.816,154.115 260.789,153.783 257.173 C 153.450 253.558,152.919 247.426,152.601 243.546 C 152.284 239.667,151.927 235.797,151.808 234.946 C 151.688 234.096,151.405 230.880,151.178 227.800 C 150.505 218.649,149.661 208.112,149.208 203.200 C 148.793 198.690,147.586 180.054,146.785 165.800 C 146.060 152.879,145.718 147.779,145.659 149.000 M301.600 150.200 C 300.989 153.143,301.312 153.466,302.000 150.600 C 302.291 149.388,302.426 148.292,302.299 148.166 C 302.173 148.040,301.858 148.955,301.600 150.200 M87.885 151.200 C 88.016 152.850,88.270 154.650,88.449 155.200 C 88.862 156.467,88.443 151.391,87.982 149.540 C 87.765 148.672,87.731 149.256,87.885 151.200 M112.432 152.827 C 112.414 153.171,112.589 154.521,112.821 155.827 C 113.790 161.288,114.858 162.359,114.390 157.400 C 114.137 154.716,114.121 154.683,114.016 156.600 L 113.907 158.600 113.352 155.800 C 112.742 152.720,112.480 151.872,112.432 152.827 M300.832 153.302 C 300.814 153.468,300.340 155.331,299.779 157.443 C 299.217 159.554,298.827 161.578,298.913 161.941 C 298.999 162.303,299.207 161.880,299.376 161.000 C 299.545 160.120,300.041 158.189,300.478 156.709 C 300.915 155.229,301.180 153.789,301.068 153.509 C 300.955 153.229,300.849 153.136,300.832 153.302 M89.051 160.174 C 89.129 162.435,89.384 164.332,89.641 164.574 C 89.977 164.890,90.024 164.159,89.823 161.739 C 89.400 156.656,88.895 155.630,89.051 160.174 M225.855 159.071 C 225.478 160.993,225.089 165.812,225.328 165.589 C 225.625 165.313,226.489 158.356,226.255 158.122 C 226.157 158.023,225.977 158.451,225.855 159.071 M274.400 158.203 C 274.400 158.314,274.126 160.230,273.791 162.460 C 273.155 166.697,273.207 167.482,274.023 165.957 C 274.455 165.149,274.928 158.000,274.549 158.000 C 274.467 158.000,274.400 158.091,274.400 158.203 M297.620 165.922 C 297.339 167.088,297.195 168.129,297.300 168.233 C 297.587 168.521,298.513 164.939,298.309 164.330 C 298.211 164.039,297.901 164.755,297.620 165.922 M224.420 169.698 C 224.140 171.514,223.983 173.450,224.072 174.000 C 224.160 174.550,224.472 173.146,224.764 170.881 C 225.402 165.932,225.140 165.033,224.420 169.698 M296.457 170.260 C 296.239 171.107,295.606 173.600,295.050 175.800 C 294.495 178.000,292.489 185.442,290.592 192.339 C 288.696 199.235,287.222 204.955,287.316 205.050 C 287.411 205.144,287.797 204.092,288.174 202.711 C 288.551 201.330,289.025 199.660,289.228 199.000 C 291.780 190.671,297.366 169.233,297.063 168.930 C 296.947 168.814,296.674 169.412,296.457 170.260 M215.860 173.300 C 215.337 179.370,215.203 182.995,215.539 182.000 C 215.897 180.939,216.572 170.400,216.281 170.400 C 216.187 170.400,215.998 171.705,215.860 173.300 M223.819 175.700 C 223.612 176.368,222.871 181.787,222.412 186.000 C 222.208 187.870,221.675 192.280,221.227 195.800 C 220.779 199.320,220.142 204.900,219.811 208.200 C 219.479 211.500,218.920 216.733,218.567 219.829 C 218.214 222.926,217.998 225.896,218.087 226.429 C 218.175 226.963,218.380 226.140,218.541 224.600 C 218.703 223.060,219.091 219.460,219.404 216.600 C 219.717 213.740,220.170 209.510,220.411 207.200 C 220.652 204.890,220.934 202.370,221.039 201.600 C 221.225 200.231,221.796 195.469,223.029 185.000 C 223.366 182.140,223.782 178.765,223.954 177.500 C 224.246 175.362,224.183 174.530,223.819 175.700 M69.632 180.586 C 69.614 180.798,70.324 183.948,71.208 187.586 C 72.092 191.223,72.924 194.650,73.057 195.200 C 73.190 195.750,73.375 195.995,73.468 195.745 C 73.561 195.495,73.174 193.425,72.608 191.145 C 70.685 183.391,69.691 179.865,69.632 180.586 M214.669 186.900 C 214.182 191.955,214.005 196.597,214.338 195.600 C 214.679 194.580,215.336 184.400,215.062 184.400 C 214.978 184.400,214.802 185.525,214.669 186.900 M140.667 189.600 C 140.794 191.690,141.042 194.210,141.218 195.200 C 141.422 196.352,141.459 195.560,141.319 193.000 C 141.198 190.800,140.951 188.280,140.768 187.400 C 140.555 186.369,140.519 187.152,140.667 189.600 M73.843 198.000 C 73.979 198.990,74.254 200.070,74.453 200.400 C 74.896 201.131,74.452 198.185,73.942 197.000 C 73.720 196.487,73.685 196.846,73.843 198.000 M141.878 202.200 C 141.997 204.620,142.241 207.680,142.421 209.000 C 142.643 210.623,142.678 209.716,142.532 206.200 C 142.412 203.340,142.167 200.280,141.988 199.400 C 141.785 198.406,141.744 199.467,141.878 202.200 M213.709 200.000 C 213.709 200.990,213.787 201.395,213.882 200.900 C 213.978 200.405,213.978 199.595,213.882 199.100 C 213.787 198.605,213.709 199.010,213.709 200.000 M74.800 201.460 C 74.800 201.890,77.874 214.098,79.116 218.600 C 81.781 228.261,83.260 233.159,83.041 231.600 C 82.915 230.704,82.302 228.344,80.186 220.600 C 79.394 217.704,78.073 212.657,76.427 206.236 C 75.318 201.911,74.800 200.390,74.800 201.460 M213.111 204.600 C 212.952 206.140,212.736 208.930,212.632 210.800 L 212.442 214.200 213.025 210.000 C 213.345 207.690,213.561 204.900,213.504 203.800 C 213.403 201.866,213.390 201.892,213.111 204.600 M286.473 207.000 C 285.815 209.246,285.937 210.127,286.640 208.207 C 286.960 207.330,287.160 206.340,287.082 206.007 C 287.005 205.673,286.731 206.120,286.473 207.000 M285.221 211.500 C 284.692 213.404,284.661 214.491,285.161 213.600 C 285.574 212.863,286.112 210.000,285.837 210.000 C 285.727 210.000,285.450 210.675,285.221 211.500 M142.901 213.800 C 142.905 214.680,142.987 214.993,143.083 214.495 C 143.179 213.998,143.175 213.278,143.075 212.895 C 142.975 212.513,142.896 212.920,142.901 213.800 M211.910 216.600 C 211.751 217.920,211.534 220.620,211.427 222.600 L 211.234 226.200 211.817 221.800 C 212.138 219.380,212.355 216.680,212.300 215.800 C 212.212 214.388,212.166 214.482,211.910 216.600 M284.002 216.060 C 283.755 217.017,283.461 218.115,283.349 218.500 C 283.238 218.885,283.243 219.200,283.362 219.200 C 283.679 219.200,284.911 214.778,284.663 214.530 C 284.547 214.414,284.250 215.102,284.002 216.060 M143.458 221.229 C 143.574 223.774,143.818 226.834,143.999 228.029 C 144.220 229.485,144.256 228.620,144.108 225.400 C 143.987 222.760,143.743 219.700,143.567 218.600 C 143.359 217.308,143.321 218.239,143.458 221.229 M278.828 233.643 C 276.534 241.429,274.059 249.676,273.328 251.969 C 272.598 254.261,272.011 256.331,272.025 256.569 C 272.098 257.800,274.201 251.150,279.354 233.400 C 280.823 228.340,282.303 223.438,282.643 222.507 C 282.983 221.575,283.202 220.514,283.131 220.149 C 283.059 219.784,281.123 225.856,278.828 233.643 M332.528 226.800 C 332.528 228.230,332.601 228.815,332.689 228.100 C 332.778 227.385,332.778 226.215,332.689 225.500 C 332.601 224.785,332.528 225.370,332.528 226.800 M210.473 231.400 C 210.191 234.040,209.705 238.360,209.392 241.000 C 209.080 243.640,208.549 248.230,208.213 251.200 C 207.877 254.170,207.397 258.276,207.146 260.325 C 206.795 263.194,206.800 264.160,207.169 264.525 C 207.539 264.893,207.588 264.844,207.386 264.312 C 207.241 263.934,207.314 262.404,207.547 260.912 C 207.779 259.420,208.074 257.120,208.202 255.800 C 208.329 254.480,208.692 251.240,209.007 248.600 C 210.310 237.706,211.248 228.348,211.121 227.502 C 211.047 227.006,210.755 228.760,210.473 231.400 M217.443 230.100 C 217.306 231.255,217.015 234.360,216.797 237.000 C 216.578 239.640,216.317 242.250,216.217 242.800 C 216.117 243.350,215.944 244.970,215.833 246.400 C 215.722 247.830,215.511 250.485,215.364 252.300 C 215.217 254.115,215.187 255.600,215.298 255.600 C 215.409 255.600,215.709 253.215,215.965 250.300 C 216.221 247.385,216.687 242.570,217.001 239.600 C 217.835 231.709,218.121 228.000,217.893 228.000 C 217.783 228.000,217.580 228.945,217.443 230.100 M144.691 236.200 C 144.810 238.620,145.054 241.770,145.231 243.200 C 145.451 244.969,145.486 244.075,145.340 240.400 C 145.223 237.430,144.980 234.280,144.800 233.400 C 144.597 232.405,144.555 233.465,144.691 236.200 M83.392 233.600 C 83.507 234.150,83.714 235.279,83.853 236.109 C 83.992 236.939,84.259 237.713,84.447 237.829 C 84.872 238.092,84.455 235.866,83.729 234.000 C 83.425 233.219,83.276 233.042,83.392 233.600 M84.800 238.717 C 84.800 239.528,86.889 247.385,87.269 248.000 C 87.554 248.463,87.593 248.418,87.438 247.800 C 87.328 247.360,86.765 245.111,86.187 242.801 C 85.197 238.846,84.800 237.677,84.800 238.717 M145.801 250.800 C 146.344 261.249,146.549 263.645,146.917 263.872 C 147.141 264.010,147.225 263.961,147.104 263.762 C 146.983 263.563,146.755 260.520,146.598 257.000 C 146.441 253.480,146.157 249.880,145.968 249.000 C 145.713 247.814,145.670 248.279,145.801 250.800 M87.620 249.146 C 87.601 249.672,91.216 262.828,91.474 263.167 C 92.078 263.963,91.615 261.945,89.785 255.800 C 88.605 251.840,87.631 248.846,87.620 249.146 M214.553 260.791 C 214.353 262.996,214.305 264.800,214.447 264.800 C 214.744 264.800,215.371 257.238,215.097 256.964 C 214.998 256.864,214.752 258.587,214.553 260.791 M271.236 258.836 C 270.966 259.739,270.835 260.569,270.946 260.679 C 271.057 260.790,271.351 260.124,271.600 259.200 C 272.189 257.011,271.877 256.699,271.236 258.836 M270.047 262.725 C 269.777 263.674,269.456 264.709,269.335 265.025 C 269.214 265.341,269.314 265.600,269.557 265.600 C 269.801 265.600,270.000 265.228,270.000 264.774 C 270.000 264.319,270.191 263.590,270.425 263.153 C 270.659 262.716,270.780 262.053,270.694 261.679 C 270.603 261.282,270.334 261.716,270.047 262.725 M147.765 283.100 C 147.919 286.345,148.117 290.350,148.205 292.000 C 148.293 293.650,148.481 297.295,148.623 300.100 C 148.768 302.984,149.051 305.200,149.272 305.200 C 149.487 305.200,149.564 304.705,149.443 304.100 C 149.157 302.679,148.200 284.346,148.200 280.300 C 148.200 278.595,148.039 277.200,147.842 277.200 C 147.635 277.200,147.602 279.687,147.765 283.100 M153.505 277.483 C 154.002 277.579,154.722 277.575,155.105 277.475 C 155.487 277.375,155.080 277.296,154.200 277.301 C 153.320 277.305,153.007 277.387,153.505 277.483 M96.043 278.600 C 96.053 279.040,96.312 280.030,96.619 280.800 L 97.176 282.200 96.937 280.600 C 96.658 278.736,96.013 277.293,96.043 278.600 M155.870 281.200 C 155.990 283.070,156.235 285.320,156.415 286.200 C 156.629 287.249,156.667 286.561,156.525 284.200 C 156.406 282.220,156.161 279.970,155.981 279.200 C 155.770 278.304,155.730 279.023,155.870 281.200 M204.437 281.700 C 204.175 283.735,203.708 287.200,203.399 289.400 C 203.091 291.600,202.553 295.650,202.204 298.400 C 201.854 301.150,201.478 303.985,201.366 304.700 C 201.255 305.415,201.332 306.000,201.537 306.000 C 201.743 306.000,201.891 305.775,201.866 305.500 C 201.785 304.588,203.086 294.503,204.216 287.279 C 204.928 282.729,205.386 278.000,205.114 278.000 C 205.004 278.000,204.699 279.665,204.437 281.700 M213.096 278.533 C 212.933 278.936,212.823 280.556,212.851 282.133 L 212.901 285.000 213.263 282.200 C 213.675 279.004,213.598 277.294,213.096 278.533 M265.085 278.700 C 264.996 278.865,264.247 281.160,263.422 283.800 C 262.596 286.440,260.749 292.165,259.317 296.523 C 257.885 300.881,256.801 304.534,256.908 304.641 C 257.068 304.801,261.183 292.566,264.455 282.200 C 264.871 280.880,265.391 279.485,265.609 279.100 C 265.853 278.671,265.860 278.400,265.627 278.400 C 265.418 278.400,265.174 278.535,265.085 278.700 M97.240 282.600 C 97.186 283.234,99.411 290.744,99.755 291.088 C 99.925 291.259,99.942 290.906,99.791 290.305 C 99.269 288.228,97.275 282.201,97.240 282.600 M212.531 287.800 C 212.533 289.340,212.605 289.921,212.692 289.091 C 212.779 288.261,212.777 287.001,212.689 286.291 C 212.600 285.581,212.529 286.260,212.531 287.800 M156.808 289.233 C 156.833 290.949,158.005 301.738,158.186 301.919 C 158.483 302.217,158.460 301.783,157.806 295.048 C 157.489 291.774,157.132 288.999,157.014 288.881 C 156.896 288.763,156.804 288.922,156.808 289.233 M211.862 294.600 C 211.690 296.800,211.420 300.265,211.260 302.300 C 211.100 304.335,211.088 306.000,211.232 306.000 C 211.573 306.000,212.524 293.826,212.326 292.000 C 212.241 291.227,212.034 292.393,211.862 294.600 M100.126 292.600 C 101.281 296.695,102.499 300.434,102.634 300.299 C 102.843 300.090,100.555 292.416,100.178 292.061 C 100.026 291.918,100.002 292.160,100.126 292.600 M103.034 302.000 C 103.450 304.158,104.065 305.327,103.771 303.400 C 103.637 302.520,103.356 301.530,103.146 301.200 C 102.887 300.792,102.852 301.049,103.034 302.000 M158.501 303.800 C 158.505 304.680,158.587 304.993,158.683 304.495 C 158.779 303.998,158.775 303.278,158.675 302.895 C 158.575 302.513,158.496 302.920,158.501 303.800 M108.000 318.165 C 108.000 318.282,109.170 321.932,110.600 326.276 C 112.030 330.621,113.200 334.395,113.200 334.664 C 113.200 334.933,113.366 335.255,113.569 335.381 C 114.030 335.666,113.592 334.044,111.413 327.400 C 110.476 324.540,109.479 321.340,109.199 320.290 C 108.782 318.722,108.000 317.338,108.000 318.165 M149.827 328.565 C 149.922 334.266,150.000 342.861,150.000 347.665 C 150.000 353.487,150.140 356.400,150.419 356.400 C 150.869 356.400,150.588 336.014,149.979 324.400 C 149.709 319.240,149.683 319.938,149.827 328.565 M160.324 320.200 C 160.414 320.970,160.558 321.600,160.644 321.600 C 160.730 321.600,160.800 320.970,160.800 320.200 C 160.800 319.430,160.656 318.800,160.480 318.800 C 160.304 318.800,160.234 319.430,160.324 320.200 M199.098 320.200 C 198.952 320.860,198.739 322.480,198.624 323.800 L 198.417 326.200 199.012 323.400 C 199.340 321.860,199.553 320.240,199.486 319.800 C 199.395 319.201,199.297 319.302,199.098 320.200 M210.267 319.467 C 210.120 319.613,210.026 321.458,210.058 323.567 L 210.116 327.400 210.421 323.400 C 210.734 319.289,210.723 319.011,210.267 319.467 M251.278 320.687 C 249.353 325.678,245.348 337.921,245.764 337.543 C 246.263 337.090,252.137 320.003,251.882 319.748 C 251.786 319.653,251.515 320.075,251.278 320.687 M161.068 324.600 C 161.456 329.257,163.213 341.784,164.963 352.380 C 165.454 355.355,165.482 356.228,165.094 356.474 C 164.747 356.695,164.808 356.790,165.300 356.794 C 166.244 356.802,166.288 357.312,164.191 344.099 C 163.568 340.175,162.870 335.253,161.994 328.600 C 161.359 323.782,160.797 321.353,161.068 324.600 M197.846 327.900 C 197.303 331.527,197.191 333.452,197.595 332.205 C 198.068 330.742,198.586 326.400,198.287 326.400 C 198.168 326.400,197.969 327.075,197.846 327.900 M209.600 330.423 C 209.600 332.048,209.425 336.263,209.210 339.789 C 208.681 348.494,208.477 357.291,208.812 356.911 C 209.168 356.509,210.178 328.045,209.849 327.716 C 209.712 327.579,209.600 328.797,209.600 330.423 M196.839 334.000 C 196.809 334.110,196.526 335.910,196.210 338.000 C 195.680 341.507,194.879 346.192,193.561 353.499 C 193.124 355.918,193.127 356.480,193.577 356.899 C 193.951 357.246,194.035 357.253,193.849 356.923 C 193.702 356.661,194.404 351.641,195.409 345.768 C 196.415 339.895,197.160 334.799,197.065 334.445 C 196.970 334.090,196.868 333.890,196.839 334.000 M114.000 336.431 C 114.000 337.001,119.976 354.829,120.426 355.600 C 121.181 356.894,120.712 355.224,118.642 349.239 C 117.456 345.807,116.364 342.550,116.217 342.000 C 116.070 341.450,115.789 340.640,115.592 340.200 C 115.395 339.760,115.039 338.635,114.801 337.700 C 114.394 336.098,114.000 335.474,114.000 336.431 M245.014 338.500 C 244.926 338.775,244.456 340.129,243.970 341.510 C 243.484 342.890,243.189 344.122,243.315 344.249 C 243.441 344.375,243.769 343.695,244.042 342.739 C 244.316 341.783,244.664 340.820,244.815 340.600 C 245.205 340.032,245.659 338.000,245.395 338.000 C 245.274 338.000,245.103 338.225,245.014 338.500 M242.298 346.395 C 241.914 347.281,241.604 348.229,241.609 348.503 C 241.614 348.776,241.978 348.205,242.420 347.232 C 242.861 346.260,243.171 345.312,243.108 345.125 C 243.046 344.938,242.681 345.510,242.298 346.395 M240.845 350.500 C 240.448 351.689,240.462 351.734,241.005 351.024 C 241.332 350.596,241.600 350.011,241.600 349.724 C 241.600 348.832,241.297 349.143,240.845 350.500 M240.000 352.439 C 240.000 352.534,239.642 353.591,239.204 354.789 C 238.766 355.987,238.547 357.107,238.718 357.278 C 238.889 357.449,239.049 357.276,239.075 356.894 C 239.100 356.512,239.416 355.412,239.776 354.449 C 240.136 353.486,240.334 352.601,240.216 352.482 C 240.097 352.364,240.000 352.344,240.000 352.439 M195.507 357.090 C 196.226 357.179,197.306 357.177,197.907 357.086 C 198.508 356.995,197.920 356.922,196.600 356.924 C 195.280 356.926,194.788 357.001,195.507 357.090 M116.931 365.400 C 116.933 366.940,117.005 367.521,117.092 366.691 C 117.179 365.861,117.177 364.601,117.089 363.891 C 117.000 363.181,116.929 363.860,116.931 365.400 M116.867 400.900 C 116.968 414.066,117.122 418.391,117.511 419.000 C 117.941 419.674,117.973 419.422,117.711 417.400 C 117.540 416.080,117.400 407.935,117.400 399.300 C 117.400 390.665,117.250 383.600,117.067 383.600 C 116.884 383.600,116.794 391.385,116.867 400.900 M242.092 396.600 C 242.039 403.200,241.915 410.130,241.816 412.000 L 241.637 415.400 242.021 412.400 C 242.232 410.750,242.356 403.820,242.296 397.000 L 242.188 384.600 242.092 396.600 M241.053 417.471 C 240.602 419.756,240.315 422.400,240.518 422.400 C 240.809 422.400,241.728 416.795,241.479 416.545 C 241.367 416.434,241.176 416.851,241.053 417.471 M118.202 421.839 C 120.121 438.564,136.918 458.603,155.600 466.456 C 180.361 476.863,213.378 468.501,228.018 448.115 C 228.849 446.957,227.594 448.064,224.789 450.962 C 217.557 458.433,209.849 463.575,200.800 466.964 C 187.372 471.993,168.647 471.684,156.200 466.229 C 152.144 464.452,148.371 462.560,146.880 461.557 C 145.934 460.921,145.058 460.400,144.932 460.400 C 144.311 460.400,139.136 455.999,134.654 451.659 C 128.825 446.015,122.694 435.629,120.059 426.937 C 119.403 424.772,118.674 422.370,118.440 421.600 L 118.014 420.200 118.202 421.839 M240.000 422.980 C 240.000 426.069,234.292 438.815,230.767 443.598 C 229.166 445.771,228.886 446.330,229.750 445.629 C 233.000 442.991,242.258 422.800,240.218 422.800 C 240.098 422.800,240.000 422.881,240.000 422.980 " stroke="none" fill="#cfd5d3" fill-rule="evenodd"></path></g></svg>